{"glyphs":{"0":{"ha":764,"x_min":-45,"x_max":828,"o":"m 416 1139 q 616 1089 535 1139 q 744 958 697 1040 q 809 780 791 876 q 828 582 828 685 l 828 550 q 764 316 825 446 q 600 95 703 185 q 372 5 496 5 q 158 63 250 5 q 14 246 66 121 q -45 561 -39 370 q -26 760 -45 661 q 44 943 -7 858 q 186 1083 94 1029 q 416 1139 279 1137 m 389 778 q 300 742 333 778 q 253 653 267 707 q 239 545 239 600 q 256 458 239 500 q 310 388 274 416 q 395 361 345 361 q 483 389 450 368 q 535 451 517 410 q 555 555 553 493 q 512 715 555 656 q 389 778 469 774 z "},"1":{"ha":347,"x_min":-89,"x_max":378,"o":"m 378 0 l 72 -17 l 89 983 l -89 966 l -56 1133 l 367 1272 l 378 0 z "},"2":{"ha":764,"x_min":-56,"x_max":876,"o":"m 461 444 q 284 292 348 414 q 200 94 220 170 l 867 211 l 800 0 l -50 -144 q -25 209 -50 66 q 40 430 1 351 q 121 545 79 509 q 214 602 163 581 q 347 640 279 604 q 473 731 415 677 q 568 836 532 785 q 604 913 604 888 q 595 928 604 926 q 557 932 578 932 q 446 917 520 932 q 355 900 372 902 q 246 866 313 895 q 123 808 179 838 q 61 772 67 779 q 48 802 59 772 q 18 883 37 831 q -24 998 -1 935 q -56 1078 -47 1061 q 99 1128 26 1105 q 251 1172 171 1151 q 404 1204 331 1192 q 547 1217 477 1217 q 648 1208 602 1217 q 735 1180 694 1200 q 809 1127 777 1160 q 861 1050 841 1095 q 876 975 876 1018 q 845 827 876 908 q 755 665 813 745 q 621 527 696 585 q 461 444 545 468 z "},"3":{"ha":833,"x_min":-122,"x_max":935,"o":"m 256 684 q 279 681 272 681 q 396 720 335 681 q 499 811 457 759 q 541 889 541 863 q 528 905 541 901 q 496 908 514 908 q 396 900 459 908 q 267 880 333 892 q 143 851 201 867 q 61 822 84 836 q 21 784 42 810 q -5 750 1 758 q -19 779 -7 750 q -48 860 -30 808 q -91 976 -67 912 q -122 1055 -114 1039 q 32 1105 -40 1082 q 184 1149 104 1128 q 337 1182 264 1170 q 481 1194 410 1194 q 581 1186 535 1194 q 668 1158 627 1177 q 741 1106 709 1138 q 794 1028 773 1074 q 803 987 803 1010 q 667 733 803 897 q 688 727 673 732 q 731 705 703 722 q 794 653 760 688 q 861 567 829 618 q 935 351 935 452 q 917 256 935 300 q 801 103 878 158 q 638 30 724 49 q 471 11 553 11 q 415 13 438 11 q 383 17 392 16 l -33 89 l 11 300 q 193 263 112 275 q 339 252 274 252 q 528 288 464 252 q 610 364 593 323 q 628 433 628 405 q 587 507 628 463 q 522 555 546 551 q 250 484 389 498 l 256 684 z "},"4":{"ha":764,"x_min":-72,"x_max":789,"o":"m -33 1044 l 256 1072 l 216 677 l 411 639 l 450 1111 l 789 1156 l 656 -183 q 543 -199 620 -199 q 438 -193 495 -199 q 355 -183 380 -187 l 395 428 l -72 500 l -33 1044 z "},"5":{"ha":833,"x_min":-172,"x_max":935,"o":"m 61 478 q -61 831 28 586 q -172 1122 -151 1076 q -77 1121 -139 1121 q 290 1141 123 1121 q 575 1187 457 1160 q 751 1233 693 1213 q 828 1261 808 1253 l 850 1022 q 734 980 817 1008 q 526 925 651 952 q 283 897 401 897 q 178 905 228 897 l 216 700 q 289 716 238 705 q 415 739 340 728 q 555 750 490 750 q 667 733 626 750 q 688 727 673 732 q 731 705 703 722 q 794 653 760 688 q 861 567 829 618 q 935 351 935 452 q 917 256 935 300 q 801 103 878 158 q 638 30 724 49 q 471 11 553 11 q 415 13 438 11 q 383 17 392 16 l -33 89 l 11 300 q 193 263 112 275 q 339 252 274 252 q 528 288 464 252 q 610 364 593 323 q 628 433 628 405 q 587 507 628 463 q 522 555 546 551 q 61 478 436 519 z "},"6":{"ha":833,"x_min":-39,"x_max":873,"o":"m 583 428 q 515 522 565 490 q 414 554 465 554 q 378 549 397 554 q 314 513 352 541 q 248 451 277 485 q 211 389 218 416 q 208 361 208 380 q 249 250 208 302 q 374 197 290 197 q 406 199 395 197 q 516 236 475 208 q 574 302 557 265 q 590 379 590 340 q 583 428 590 406 m 378 717 q 447 743 403 731 q 530 754 490 754 q 606 733 581 754 q 627 727 612 732 q 670 705 642 722 q 733 653 699 688 q 800 567 768 618 q 873 351 873 450 q 856 256 873 300 q 762 107 821 165 q 637 22 703 50 q 517 -14 572 -6 q 422 -22 463 -22 q 375 -24 406 -24 q 184 8 268 -24 q 46 97 101 40 q -33 228 -9 153 q -39 279 -39 244 q -20 431 -39 338 q 28 619 -2 525 q 89 772 58 713 q 238 993 149 886 q 487 1196 328 1101 q 872 1333 646 1291 l 700 1061 q 602 982 668 1038 q 464 850 535 926 q 378 717 392 773 z "},"7":{"ha":972,"x_min":-106,"x_max":1072,"o":"m 650 905 l -106 966 l -106 1234 l 1072 1139 l 555 -205 l 228 -233 l 650 905 z "},"8":{"ha":833,"x_min":-47,"x_max":935,"o":"m 422 -22 q 375 -24 406 -24 q 184 8 268 -24 q 46 97 101 40 q -33 228 -9 153 q -47 328 -47 274 q -21 477 -47 404 q 61 600 6 551 q 151 664 100 635 q 228 705 201 693 q 11 933 11 789 q 33 1028 11 979 q 161 1164 79 1125 q 355 1203 242 1203 q 428 1200 389 1203 q 609 1175 541 1192 q 729 1115 677 1158 q 817 994 780 1073 q 823 964 823 979 q 802 900 823 935 q 745 823 781 866 q 667 733 708 781 q 688 727 673 732 q 731 705 703 722 q 794 653 760 688 q 861 567 829 618 q 935 351 935 452 q 917 256 935 300 q 817 107 882 164 q 675 22 751 50 q 535 -14 598 -6 q 422 -22 471 -22 m 378 507 q 297 468 349 502 q 244 406 244 433 q 244 406 244 406 q 233 387 243 406 q 222 345 222 365 q 389 253 222 267 q 422 252 400 252 q 557 287 511 252 q 615 362 603 322 q 628 433 628 401 q 587 507 628 463 q 522 555 546 551 q 378 507 451 526 m 283 933 q 275 914 275 923 q 288 894 275 903 q 329 871 301 884 q 406 833 357 857 q 486 873 454 857 q 533 900 517 889 q 549 921 549 910 q 539 939 549 931 q 482 967 521 956 q 404 978 444 978 q 283 933 317 978 z "},"9":{"ha":833,"x_min":-7,"x_max":905,"o":"m 334 750 q 422 685 356 685 q 499 703 460 685 q 567 745 539 721 q 595 783 595 769 q 595 783 595 783 q 597 791 595 783 q 602 816 600 800 q 604 843 604 832 q 489 939 604 939 q 450 936 477 939 q 356 893 389 929 q 323 806 323 858 q 334 750 323 775 m 472 450 q 423 434 455 440 q 363 428 391 428 q 261 456 294 428 q 181 494 237 460 q 66 623 126 529 q 11 736 28 683 q -7 838 -7 789 q 11 933 -7 889 q 140 1113 57 1051 q 303 1193 223 1175 q 444 1211 382 1211 q 492 1213 461 1213 q 681 1181 597 1213 q 821 1092 765 1149 q 900 961 876 1034 q 905 909 905 945 q 865 661 905 817 q 778 416 824 504 q 679 226 743 349 q 545 -13 614 103 q 391 -231 475 -128 q 222 -389 307 -334 l 0 -378 q 83 -244 28 -334 q 235 8 138 -155 q 396 288 332 171 q 472 450 460 404 z "},"P":{"ha":764,"x_min":-56,"x_max":869,"o":"m -56 1078 q 99 1128 26 1105 q 251 1172 171 1151 q 404 1204 331 1192 q 519 1214 460 1214 q 648 1208 618 1214 q 735 1180 694 1200 q 809 1127 777 1160 q 861 1050 841 1095 q 869 1011 869 1031 q 786 824 869 935 q 620 630 703 713 q 494 511 536 547 l 616 83 l 439 -45 l 127 844 q 115 831 126 844 q 84 798 103 819 q 61 772 66 777 q 48 802 59 772 q 18 883 37 831 q -24 998 -1 935 q -56 1078 -47 1061 m 383 889 l 439 689 q 543 806 481 732 q 606 913 606 880 q 595 928 606 926 q 534 935 564 935 q 383 889 445 935 z "}," ":{"ha":694,"x_min":0,"x_max":0,"o":""},"M":{"ha":972,"x_min":5,"x_max":1072,"o":"m 100 1011 l 433 1034 l 522 889 l 600 1089 l 817 1095 l 1072 -94 l 677 -56 l 606 350 l 528 200 l 422 389 l 389 45 l 5 17 l 100 1011 z "},"o":{"ha":694,"x_min":-26,"x_max":751,"o":"m 615 734 q 693 665 663 709 q 738 567 724 621 q 751 453 751 512 q 744 359 751 404 q 722 275 736 313 q 690 211 709 237 q 599 101 648 147 q 499 27 550 55 q 398 -15 448 -1 q 300 -28 349 -28 q 190 -10 242 -28 q 102 37 138 8 q 7 173 41 87 q -26 353 -26 258 q 68 616 -26 516 q 235 746 149 703 q 411 790 321 790 q 513 777 464 790 q 615 734 562 764 m 575 621 q 525 530 564 569 q 450 490 487 490 q 418 500 432 490 q 397 557 397 516 q 418 618 397 588 q 484 667 439 649 q 397 650 439 667 q 326 606 355 633 q 278 546 296 579 q 260 478 260 512 q 318 378 260 415 q 421 343 372 343 q 507 375 469 343 q 564 458 544 408 q 583 558 583 509 q 575 621 583 592 z "},"K":{"ha":764,"x_min":-89,"x_max":1083,"o":"m -56 1133 l 289 1278 l 289 1055 l 472 1250 l 705 1055 l 372 572 l 1067 39 l 1083 -233 l 378 150 l 395 -183 l 72 -189 l 11 989 l -89 966 l -56 1133 z "},"L":{"ha":764,"x_min":-89,"x_max":1067,"o":"m 355 89 l 1067 56 l 1061 -239 l 72 -189 l 11 989 l -89 966 l -56 1133 l 289 1278 l 355 89 z "},"'":{"ha":278,"x_min":14,"x_max":296,"o":"m 268 760 l 123 779 l 14 1213 l 296 1173 l 268 760 z "},"e":{"ha":694,"x_min":-16,"x_max":789,"o":"m 625 375 l 789 178 q 695 73 769 121 q 520 -2 622 26 q 318 -29 419 -29 q 158 -5 229 -29 q 50 66 88 18 q -16 278 -16 149 q 21 478 -16 380 q 100 616 58 577 q 207 694 149 663 q 328 741 265 726 q 456 757 390 757 q 620 729 542 757 q 755 650 697 702 l 383 205 q 477 226 433 205 q 559 285 522 247 q 625 375 596 323 m 437 533 q 370 550 404 550 q 299 535 333 550 q 250 500 264 520 q 208 380 208 446 q 213 335 208 357 q 229 275 218 313 l 437 533 z "},"O":{"ha":1042,"x_min":-46,"x_max":1105,"o":"m 945 1017 q 1105 689 1105 894 q 1085 544 1105 618 q 1029 400 1065 469 q 950 278 994 332 q 809 130 879 190 q 669 32 740 69 q 533 -23 599 -6 q 404 -40 467 -40 q 139 39 258 -40 q 6 208 59 93 q -46 456 -46 323 q 89 822 -46 668 q 256 983 168 913 q 437 1094 343 1054 q 628 1135 530 1135 q 945 1017 789 1135 m 811 842 q 756 716 798 766 q 671 667 715 667 q 623 688 643 667 q 605 720 612 699 q 597 762 597 742 q 622 844 597 804 q 701 914 647 884 q 590 884 636 914 q 523 807 545 854 q 501 710 501 760 q 547 595 501 631 q 659 550 603 550 q 774 611 727 550 q 821 762 821 672 q 811 842 821 804 z "},"N":{"ha":764,"x_min":-122,"x_max":861,"o":"m 289 1278 l 467 828 l 428 1239 l 850 1222 l 861 -300 l 611 -317 l 355 406 l 361 -189 l 39 -195 l 0 1105 l -117 1133 l -122 1305 l 289 1278 z "},"R":{"ha":833,"x_min":-56,"x_max":961,"o":"m 339 911 l 378 711 q 478 789 422 721 q 533 897 533 857 q 517 922 533 918 q 424 940 448 940 q 339 911 380 940 m 503 602 q 450 551 478 577 q 411 517 421 525 l 500 22 l 267 -39 l 127 844 q 112 832 123 844 q 82 798 101 820 q 61 772 64 775 q 48 802 59 772 q 18 883 37 831 q -24 998 -1 935 q -56 1078 -47 1061 q 99 1128 26 1105 q 251 1172 171 1151 q 404 1204 331 1192 q 547 1217 477 1217 q 648 1208 602 1217 q 735 1180 694 1200 q 809 1127 777 1160 q 861 1050 841 1095 q 868 1015 868 1036 q 848 942 868 982 q 795 858 828 903 q 722 766 762 814 q 794 712 760 762 q 844 595 828 663 l 961 -5 l 755 -50 l 606 500 q 590 535 602 511 q 559 581 578 558 q 517 604 539 604 q 503 602 512 604 z "},"?":{"ha":764,"x_min":-56,"x_max":868,"o":"m 214 602 q 347 640 279 604 q 473 731 415 677 q 568 836 532 785 q 604 913 604 888 q 595 928 604 926 q 557 932 578 932 q 446 917 520 932 q 355 900 372 902 q 246 866 313 895 q 123 808 179 838 q 61 772 67 779 q 48 802 59 772 q 18 883 37 831 q -24 998 -1 935 q -56 1078 -47 1061 q 99 1128 26 1105 q 251 1172 171 1151 q 404 1204 331 1192 q 547 1217 477 1217 q 648 1208 602 1217 q 735 1180 694 1200 q 809 1127 777 1160 q 861 1050 841 1095 q 868 1014 868 1036 q 760 794 868 930 q 509 539 652 657 q 285 397 366 422 l 214 602 m 389 272 q 472 256 436 272 q 529 218 507 240 q 559 178 551 197 q 568 138 568 160 q 554 70 568 104 q 519 12 540 36 q 481 -17 499 -13 q 428 -22 444 -22 q 321 12 361 -22 q 272 109 280 47 q 300 216 272 166 q 389 272 328 267 z "},"W":{"ha":972,"x_min":-100,"x_max":989,"o":"m 872 -66 l 539 -89 l 450 56 l 372 -144 l 155 -150 l -100 1039 l 294 1000 l 367 595 l 444 745 l 550 555 l 606 1183 l 989 1211 l 872 -66 z "},"B":{"ha":833,"x_min":-56,"x_max":997,"o":"m 372 950 l 428 650 q 502 719 452 671 q 601 829 552 767 q 650 930 650 891 q 611 972 650 962 q 551 979 578 979 q 484 974 517 979 q 372 950 450 968 m 528 294 q 662 379 630 337 q 694 456 694 420 q 653 529 694 485 q 589 578 612 573 q 532 531 558 547 q 494 511 505 515 l 528 294 m 928 589 q 997 382 997 479 q 905 180 997 262 q 721 63 813 99 q 583 17 629 27 l 350 -45 l 127 844 q 112 832 123 844 q 83 799 100 820 q 61 772 66 777 q 48 802 59 772 q 18 883 37 831 q -24 998 -1 935 q -56 1078 -47 1061 q 99 1128 26 1105 q 251 1172 171 1151 q 404 1204 331 1192 q 547 1217 477 1217 q 648 1208 602 1217 q 735 1180 694 1200 q 809 1127 777 1160 q 861 1050 841 1095 q 869 1010 869 1031 q 733 755 869 920 q 813 718 758 752 q 928 589 868 684 z "},".":{"ha":278,"x_min":-5,"x_max":290,"o":"m 111 283 q 194 268 159 283 q 252 229 229 252 q 282 189 274 206 q 290 149 290 170 q 276 82 290 115 q 241 23 262 48 q 203 -5 220 -3 q 150 -11 166 -11 q 42 24 83 -11 q -5 119 2 59 q 23 228 -5 178 q 111 283 51 278 z "},":":{"ha":764,"x_min":134,"x_max":568,"o":"m 389 272 q 472 256 436 272 q 529 218 507 240 q 559 178 551 197 q 568 138 568 160 q 554 70 568 104 q 519 12 540 36 q 481 -17 499 -13 q 428 -22 444 -22 q 321 12 361 -22 q 272 109 280 47 q 300 216 272 166 q 389 272 328 267 m 250 689 q 333 673 298 689 q 391 634 368 657 q 421 595 413 612 q 429 554 429 576 q 415 487 429 521 q 380 428 401 454 q 342 400 359 403 q 289 395 305 395 q 181 430 222 395 q 134 525 141 465 q 162 633 134 583 q 250 689 190 684 z "},"E":{"ha":764,"x_min":-78,"x_max":1067,"o":"m 355 89 l 1067 56 l 1061 -239 l 72 -189 l 17 833 l -78 817 l -61 1139 l 761 1261 l 778 966 l 311 889 l 322 677 l 783 755 l 800 511 l 334 422 l 355 89 z "},"F":{"ha":764,"x_min":-78,"x_max":778,"o":"m 72 -189 l 17 833 l -78 817 l -61 1139 l 761 1261 l 778 966 l 311 889 l 322 677 l 672 733 l 689 489 l 334 422 l 372 -189 q 290 -198 348 -193 q 184 -204 233 -204 q 72 -189 109 -204 z "},"l":{"ha":347,"x_min":-89,"x_max":378,"o":"m 378 -172 l 72 -189 l 11 989 l -89 966 l -56 1133 l 289 1278 l 378 -172 z "},"D":{"ha":903,"x_min":-28,"x_max":956,"o":"m 595 928 q 505 947 538 947 q 416 917 459 947 l 450 300 q 603 398 565 349 q 650 478 642 446 q 664 552 656 493 q 671 684 671 611 q 653 846 671 779 q 595 928 636 913 m 861 1050 q 915 918 893 986 q 946 782 936 850 q 956 648 956 714 q 924 422 956 530 q 833 228 892 313 q 691 88 774 142 q 505 22 607 35 l 222 -28 l 127 844 q 94 808 123 844 q 61 772 66 772 q 35 830 46 783 q 3 978 24 878 q -28 1100 -18 1078 q 267 1182 129 1151 q 525 1214 406 1214 q 861 1050 781 1214 z "},"H":{"ha":764,"x_min":-122,"x_max":861,"o":"m 345 1267 l 361 794 l 456 794 l 428 1239 l 789 1211 l 861 -300 l 583 -294 l 472 500 l 367 528 l 361 -189 l 39 -195 l 0 1105 l -117 1133 l -122 1305 l 345 1267 z "},"V":{"ha":972,"x_min":-106,"x_max":1139,"o":"m 17 1034 l -100 1061 l -106 1234 l 306 1206 l 561 400 l 745 1156 l 1139 1133 l 728 -122 l 422 -117 l 17 1034 z "},",":{"ha":555,"x_min":-52,"x_max":481,"o":"m 481 127 l 207 -232 l -52 -142 l 351 174 l 481 127 z "},";":{"ha":625,"x_min":-52,"x_max":481,"o":"m 250 689 q 333 673 298 689 q 391 634 368 657 q 421 595 413 612 q 429 554 429 576 q 415 487 429 521 q 380 428 401 454 q 342 400 359 403 q 289 395 305 395 q 181 430 222 395 q 134 525 141 465 q 162 633 134 583 q 250 689 190 684 m 481 127 l 207 -232 l -52 -142 l 351 174 l 481 127 z "},"S":{"ha":764,"x_min":-134,"x_max":889,"o":"m -28 1050 q 289 1211 48 1211 q 556 1176 416 1211 q 889 1078 696 1140 q 825 908 874 1044 q 772 772 777 772 q 710 808 767 778 q 587 867 654 838 q 478 900 520 895 q 390 921 459 902 q 286 940 320 940 q 239 928 255 940 q 211 882 211 908 q 234 828 211 857 q 294 771 257 800 q 377 715 332 743 q 467 667 422 688 q 624 565 557 622 q 728 450 691 507 q 783 335 766 393 q 800 224 800 276 q 778 111 800 162 q 656 -16 736 24 q 465 -56 576 -56 q 322 -42 401 -56 q 168 -9 242 -29 q 11 37 94 11 q -134 83 -71 63 q -101 166 -123 104 q -62 274 -78 229 q -33 354 -46 319 q -17 389 -20 389 q 111 320 2 373 q 278 261 219 268 q 352 245 300 259 q 424 226 404 231 q 469 221 443 221 q 517 233 500 221 q 547 281 547 256 q 406 411 547 336 q 213 538 319 456 q 27 727 106 620 q -53 942 -53 835 q -28 1050 -53 997 z "},"´":{"ha":764,"x_min":89,"x_max":606,"o":"m 89 1022 l 450 1222 l 606 983 l 167 900 l 89 1022 z "},"`":{"ha":764,"x_min":89,"x_max":606,"o":"m 606 1022 l 528 900 l 89 983 l 244 1222 l 606 1022 z "},"T":{"ha":764,"x_min":-134,"x_max":972,"o":"m 628 895 l 667 -17 l 625 -17 q 522 -14 585 -17 q 409 -6 460 -12 q 334 11 358 1 l 289 884 l -134 878 l -127 1145 l 956 1217 l 972 922 l 628 895 z "},"I":{"ha":764,"x_min":-78,"x_max":789,"o":"m 444 311 l 789 306 l 783 11 l -33 11 l 0 272 l 189 278 l 216 867 l -78 817 l -61 1139 l 761 1261 l 778 966 l 494 911 l 444 311 z "},"~":{"ha":764,"x_min":-11,"x_max":728,"o":"m -11 1034 l 5 1189 q 95 1233 34 1206 q 222 1260 156 1260 q 339 1211 296 1260 q 467 1160 383 1160 q 572 1179 519 1160 q 660 1227 625 1198 q 694 1283 694 1256 l 728 1044 q 591 1006 682 1029 q 433 983 500 983 q 355 1006 374 983 q 279 1054 330 1038 q 168 1069 229 1069 q -11 1034 69 1069 z "},"˜":{"ha":764,"x_min":-11,"x_max":728,"o":"m -11 1034 l 5 1189 q 95 1233 34 1206 q 222 1260 156 1260 q 339 1211 296 1260 q 467 1160 383 1160 q 572 1179 519 1160 q 660 1227 625 1198 q 694 1283 694 1256 l 728 1044 q 591 1006 682 1029 q 433 983 500 983 q 355 1006 374 983 q 279 1054 330 1038 q 168 1069 229 1069 q -11 1034 69 1069 z "},"Q":{"ha":694,"x_min":-16,"x_max":933,"o":"m 478 717 q 460 722 470 722 q 373 667 425 722 q 282 536 321 612 q 244 406 244 460 q 246 375 245 393 q 254 343 247 357 q 279 317 261 328 q 328 300 296 307 q 350 297 342 297 q 443 340 401 297 q 508 450 485 383 q 532 579 532 516 q 478 717 532 681 m 522 41 q 329 -8 427 -8 q 78 89 191 -8 q 6 202 28 132 q -16 358 -16 272 q 7 555 -16 453 q 61 722 31 658 q 173 879 106 817 q 313 967 240 940 q 460 994 387 994 q 563 979 515 994 q 639 939 611 964 q 764 767 719 871 q 810 545 810 663 q 766 322 810 430 q 715 222 749 277 q 773 181 733 212 q 862 100 814 151 q 933 -5 909 50 l 739 -150 q 696 -86 727 -129 q 618 -1 666 -43 q 522 41 570 41 z "},"Y":{"ha":972,"x_min":-106,"x_max":1072,"o":"m 39 1050 l -100 1061 l -106 1234 l 306 1206 l 583 689 l 745 1156 l 1072 1139 l 555 -205 l 228 -233 l 428 339 l 39 1050 z "},"\"":{"ha":694,"x_min":-56,"x_max":643,"o":"m 199 760 l 54 779 l -56 1213 l 227 1173 l 199 760 m 615 760 l 471 779 l 361 1213 l 643 1173 l 615 760 z "},"‘":{"ha":278,"x_min":14,"x_max":296,"o":"m 268 760 l 123 779 l 14 1213 l 296 1173 l 268 760 z "},"’":{"ha":278,"x_min":14,"x_max":296,"o":"m 268 760 l 123 779 l 14 1213 l 296 1173 l 268 760 z "},"“":{"ha":694,"x_min":-56,"x_max":643,"o":"m 199 760 l 54 779 l -56 1213 l 227 1173 l 199 760 m 615 760 l 471 779 l 361 1213 l 643 1173 l 615 760 z "},"”":{"ha":694,"x_min":-56,"x_max":643,"o":"m 199 760 l 54 779 l -56 1213 l 227 1173 l 199 760 m 615 760 l 471 779 l 361 1213 l 643 1173 l 615 760 z "},"y":{"ha":903,"x_min":-56,"x_max":956,"o":"m -56 661 l 216 789 l 489 283 l 656 750 l 956 633 l 450 -589 l 183 -489 l 339 -66 l -56 661 z "},"i":{"ha":347,"x_min":-56,"x_max":367,"o":"m 367 -127 l 61 -144 l 45 583 l -56 561 l -22 728 l 322 872 l 367 -127 m 144 1283 q 228 1267 193 1283 q 285 1229 262 1251 q 315 1189 307 1206 q 323 1149 323 1171 q 309 1081 323 1116 q 275 1023 295 1047 q 236 994 254 998 q 183 989 201 989 q 105 1004 138 989 q 52 1050 72 1020 q 28 1120 33 1080 q 56 1227 28 1177 q 144 1283 84 1278 z "},"U":{"ha":903,"x_min":-122,"x_max":958,"o":"m 345 1267 q 340 1121 340 1204 q 350 845 340 997 q 375 575 360 693 q 406 422 390 457 q 481 345 440 345 q 528 371 505 345 q 567 439 551 397 q 596 686 596 513 q 593 820 596 755 q 585 961 590 884 q 574 1124 580 1038 q 567 1239 568 1210 l 928 1211 q 950 1004 941 1123 q 958 766 958 884 q 946 522 958 635 q 905 322 934 408 q 846 219 890 277 q 751 113 802 161 q 661 41 699 64 q 464 -4 581 -4 q 289 24 376 -4 q 139 106 203 52 q 67 217 97 142 q 19 395 38 291 q -7 609 1 499 q -16 825 -16 719 q 0 1105 -16 987 l -117 1133 l -122 1305 l 345 1267 z "},"h":{"ha":833,"x_min":-17,"x_max":897,"o":"m 306 783 q 515 823 427 823 q 656 789 596 823 q 736 725 692 768 q 815 632 781 683 q 861 533 850 581 q 897 281 897 389 q 890 161 897 224 q 867 0 882 98 l 583 -17 q 585 81 585 17 q 511 533 585 347 q 456 603 483 603 q 378 505 420 603 q 361 451 368 481 q 352 382 355 420 q 349 293 349 345 q 361 28 349 189 l 28 -11 q 21 81 22 28 q 18 191 19 134 q 14 293 17 247 q 1 399 11 340 l -17 1283 l 261 1317 l 306 783 z "},"u":{"ha":833,"x_min":0,"x_max":897,"o":"m 28 844 l 361 806 q 349 541 349 645 q 352 450 349 488 q 361 381 355 412 q 378 328 368 350 q 456 231 420 231 q 511 300 483 231 q 545 394 530 348 q 568 483 560 441 q 581 575 576 525 q 585 685 585 625 q 583 778 585 745 l 867 761 q 893 592 889 621 q 897 519 897 563 q 861 300 897 446 q 783 144 844 226 q 667 31 723 63 q 461 -20 578 -20 q 303 3 380 -20 q 161 72 226 26 q 65 182 101 114 q 14 330 28 250 q 0 507 0 410 q 4 620 0 566 q 14 731 7 674 q 28 844 20 787 z "},"n":{"ha":833,"x_min":-11,"x_max":897,"o":"m 294 783 q 424 822 370 808 q 528 835 478 835 q 644 806 594 835 q 774 688 705 771 q 861 533 844 604 q 897 281 897 389 q 890 161 897 224 q 867 0 882 98 l 583 -17 q 585 81 585 17 q 511 533 585 347 q 456 603 483 603 q 378 505 420 603 q 361 451 368 481 q 352 382 355 420 q 349 293 349 345 q 361 28 349 189 l 28 -11 q 13 108 20 49 q 2 217 6 167 q -1 326 -1 268 q 1 399 -1 351 l -11 794 l 256 828 l 294 783 z "},"m":{"ha":1181,"x_min":-11,"x_max":1244,"o":"m 614 778 q 875 833 789 833 q 991 806 943 833 q 1122 688 1052 771 q 1208 533 1192 604 q 1244 281 1244 389 q 1237 161 1244 224 q 1214 0 1230 98 l 930 -17 q 932 81 932 17 q 859 533 932 347 q 827 585 845 566 q 794 604 808 604 q 779 583 779 604 q 782 562 779 571 q 791 533 787 551 q 828 281 828 386 q 821 173 828 229 q 798 0 814 116 l 514 -17 q 515 81 515 17 q 441 533 515 347 q 428 579 433 555 q 421 603 423 603 q 406 571 418 603 q 378 505 393 539 q 361 451 368 481 q 352 382 355 420 q 349 293 349 345 q 361 28 349 189 l 28 -11 q 13 108 20 49 q 2 217 6 167 q -1 326 -1 268 q 1 399 -1 351 l -11 794 l 256 828 l 294 783 q 469 818 401 818 q 614 778 545 818 z "},"p":{"ha":694,"x_min":-139,"x_max":751,"o":"m 294 -26 l 328 -572 l 22 -589 l -24 292 l -24 298 q -26 349 -26 332 l -39 589 l -139 567 l -106 733 l 239 878 l 248 753 q 411 791 328 791 q 615 734 511 791 q 693 665 663 709 q 738 567 724 621 q 751 453 751 512 q 744 359 751 404 q 722 275 736 313 q 690 211 709 237 q 566 73 633 125 q 431 -3 499 20 q 294 -26 363 -26 m 262 503 q 280 428 262 465 q 318 378 297 392 q 421 343 372 343 q 507 375 469 343 q 564 458 544 408 q 583 558 583 509 q 575 621 583 592 q 525 530 564 569 q 450 490 487 490 q 418 500 432 490 q 397 557 397 516 q 418 618 397 588 q 484 667 439 649 q 382 643 429 667 q 303 581 335 620 q 262 503 271 543 z "},"q":{"ha":694,"x_min":-26,"x_max":761,"o":"m 722 861 l 761 -600 l 505 -606 l 473 14 q 300 -28 389 -28 q 190 -10 241 -28 q 102 37 139 7 q 7 173 41 87 q -26 353 -26 258 q 68 616 -26 516 q 412 790 231 790 q 519 775 470 790 l 722 861 m 497 366 l 494 511 q 436 524 451 511 q 421 562 421 537 q 432 620 421 590 q 449 663 442 649 q 356 625 398 654 q 290 557 315 597 q 265 478 265 517 q 323 378 265 415 q 419 355 358 355 q 497 366 459 355 z "},"b":{"ha":729,"x_min":-89,"x_max":785,"o":"m 306 12 l 306 -11 l 0 -28 l 11 989 l -89 966 l -56 1133 l 289 1278 l 294 799 q 443 831 371 831 q 648 774 543 831 q 752 660 719 736 q 785 492 785 585 q 777 398 785 443 q 755 315 769 353 q 724 250 742 277 q 601 113 667 166 q 467 35 534 59 q 334 11 400 11 q 321 12 327 12 q 306 12 315 12 m 298 554 l 300 482 q 351 416 311 443 q 454 382 407 382 q 540 414 503 382 q 597 497 577 446 q 616 597 616 547 q 608 660 616 630 q 558 568 596 608 q 484 529 520 529 q 452 539 465 529 q 431 596 431 554 q 451 658 431 628 q 517 705 471 688 q 419 684 465 705 q 341 628 373 663 q 298 554 310 593 z "},"d":{"ha":694,"x_min":-26,"x_max":755,"o":"m 450 664 q 377 640 413 659 q 315 595 340 621 q 274 539 289 570 q 260 478 260 508 q 318 378 260 416 q 422 343 370 343 q 450 346 433 343 l 450 490 q 418 500 432 490 q 397 562 397 516 q 450 664 397 629 m 444 1322 l 728 1450 l 745 532 q 750 452 750 496 q 747 393 750 412 l 755 -22 l 450 -39 l 450 3 q 300 -28 376 -28 q 190 -10 241 -28 q 102 37 139 7 q 7 173 41 87 q -26 353 -26 258 q 68 616 -26 516 q 236 746 149 702 q 412 790 322 790 q 450 789 437 790 l 444 1322 z "},"v":{"ha":972,"x_min":-72,"x_max":966,"o":"m -72 850 l 300 833 l 461 406 l 623 822 l 966 789 l 616 -94 l 294 -83 l -72 850 z "},"^":{"ha":764,"x_min":-28,"x_max":761,"o":"m 355 1289 l 745 1156 l 761 966 l 355 1100 l -28 983 l 0 1173 l 355 1289 z "},"ˆ":{"ha":764,"x_min":-28,"x_max":761,"o":"m 355 1289 l 745 1156 l 761 966 l 355 1100 l -28 983 l 0 1173 l 355 1289 z "},"w":{"ha":1389,"x_min":-72,"x_max":1522,"o":"m 739 211 l 611 -78 l 294 -83 l -72 850 l 300 833 l 461 406 l 557 664 l 484 850 l 856 833 l 1017 406 l 1178 822 l 1522 789 l 1173 -94 l 850 -83 l 739 211 z "},"r":{"ha":764,"x_min":-11,"x_max":800,"o":"m 800 661 l 561 505 q 514 583 543 551 q 453 615 484 615 q 378 545 408 615 q 349 307 349 477 q 361 28 349 189 l 28 -11 q -1 363 -1 199 q 1 437 -1 390 l -11 833 l 256 867 l 294 822 q 382 850 342 838 q 458 868 422 861 q 526 875 493 875 q 644 844 593 875 q 746 770 709 808 q 800 661 784 731 z "},"C":{"ha":833,"x_min":-57,"x_max":936,"o":"m 936 856 l 632 657 q 428 733 602 733 q 347 677 389 733 q 306 550 306 621 q 338 447 309 496 q 439 395 366 398 q 553 424 493 395 q 656 541 612 453 q 712 490 659 535 q 822 399 766 444 q 904 332 878 353 q 768 138 852 208 q 590 43 683 68 q 406 17 497 17 q 180 65 277 17 q 20 232 83 114 q -56 550 -42 349 q -57 610 -57 570 q -34 802 -57 710 q 43 969 -10 895 q 190 1090 96 1043 q 416 1139 283 1137 q 590 1118 505 1139 q 747 1060 675 1097 q 869 970 818 1023 q 936 856 920 917 z "},"s":{"ha":764,"x_min":-106,"x_max":867,"o":"m 761 517 q 662 548 741 524 q 523 590 584 572 q 387 624 461 608 q 272 640 313 640 q 239 633 250 640 q 205 587 205 608 q 272 530 205 554 q 433 494 338 506 q 644 433 564 480 q 760 325 724 387 q 796 197 796 262 q 778 111 796 151 q 476 -56 699 -56 q 338 -42 415 -56 q 192 -10 262 -29 q 42 35 121 9 q -106 83 -37 61 q -61 172 -88 120 q -8 273 -34 224 q 17 328 17 323 q 66 298 37 309 q 152 272 96 287 q 239 244 209 256 q 375 220 304 220 q 458 229 418 220 q 500 244 497 238 q 440 279 500 262 q 306 306 380 296 q 137 347 222 315 q -8 439 52 378 q -68 590 -68 500 q -33 733 -68 659 q 81 854 5 817 q 262 892 157 892 q 514 857 385 892 q 867 750 644 823 q 829 664 862 740 q 781 552 797 587 q 761 517 764 517 z "},"c":{"ha":694,"x_min":-58,"x_max":746,"o":"m 587 806 q 666 729 631 778 q 720 638 701 680 q 745 578 739 596 l 493 522 q 457 567 487 556 q 395 578 427 578 q 222 372 222 562 q 317 205 227 222 q 394 227 359 205 q 453 282 429 248 q 494 361 478 317 l 746 310 q 726 256 742 296 q 644 134 709 210 q 500 28 579 58 q 310 -9 404 -9 q 43 89 159 -9 q -34 196 -10 135 q -58 325 -58 257 q -39 464 -58 395 q 9 589 -19 532 q 92 714 47 662 q 185 799 136 766 q 286 847 235 831 q 390 863 338 863 q 587 806 497 863 z "},"x":{"ha":972,"x_min":-72,"x_max":1044,"o":"m 486 129 l 322 -83 l -28 -94 l 311 354 l -72 850 l 300 833 l 486 587 l 672 833 l 1044 850 l 661 354 l 1000 -94 l 650 -83 l 486 129 z "},"!":{"ha":278,"x_min":-78,"x_max":328,"o":"m 111 283 q 194 268 159 283 q 252 229 229 252 q 282 189 274 206 q 290 149 290 170 q 276 82 290 115 q 241 23 262 48 q 203 -5 220 -3 q 150 -11 166 -11 q 42 24 83 -11 q -5 119 2 59 q 23 228 -5 178 q 111 283 51 278 m 11 472 l -78 1222 l 328 1344 l 244 494 l 11 472 z "},"k":{"ha":764,"x_min":-89,"x_max":917,"o":"m -56 1133 l 289 1278 l 339 494 l 623 650 l 917 606 l 533 311 l 895 39 l 911 -233 l 378 150 l 395 -183 l 72 -189 l 11 989 l -89 966 l -56 1133 z "},"g":{"ha":694,"x_min":-26,"x_max":745,"o":"m 497 366 l 494 511 q 436 524 451 511 q 421 562 421 537 q 432 620 421 590 q 449 663 442 649 q 356 625 398 654 q 290 557 315 597 q 265 478 265 517 q 323 378 265 415 q 419 355 358 355 q 497 366 459 355 m 745 11 l 745 -65 q 733 -308 745 -195 q 684 -467 721 -421 q 549 -580 630 -533 q 361 -627 468 -627 q 211 -600 292 -627 q 86 -531 132 -574 q 23 -438 41 -489 q 4 -330 4 -387 q 25 -194 4 -256 q 61 -106 47 -132 l 283 -250 q 281 -273 281 -267 q 310 -339 281 -315 q 380 -363 340 -363 q 444 -342 416 -363 q 478 -283 471 -321 q 486 -167 486 -238 q 473 14 486 -79 q 300 -28 389 -28 q 190 -10 241 -28 q 102 37 139 7 q 7 173 41 87 q -26 353 -26 258 q 68 616 -26 516 q 412 790 231 790 q 519 775 470 790 l 728 878 l 745 11 z "},"G":{"ha":833,"x_min":-57,"x_max":936,"o":"m 511 411 l 461 433 l 539 611 l 922 467 l 833 -283 l 489 -256 q 541 -97 507 -200 q 583 39 574 7 q 406 17 539 17 q 180 65 277 17 q 20 232 83 114 q -56 550 -42 349 q -57 610 -57 570 q -34 802 -57 710 q 43 969 -10 895 q 190 1090 96 1043 q 416 1139 283 1137 q 590 1118 505 1139 q 747 1060 675 1097 q 869 970 818 1023 q 936 856 920 917 l 632 657 q 428 733 602 733 q 347 677 389 733 q 306 550 306 621 q 338 447 309 496 q 439 395 366 398 q 460 398 445 395 q 487 405 475 402 q 511 411 499 408 z "},"a":{"ha":694,"x_min":-26,"x_max":755,"o":"m 450 664 q 377 640 413 659 q 315 595 340 621 q 274 539 289 570 q 260 478 260 508 q 318 378 260 416 q 422 343 370 343 q 450 346 433 343 l 450 490 q 418 500 432 490 q 397 562 397 516 q 450 664 397 629 m 456 783 l 739 911 l 745 532 q 750 452 750 496 q 747 393 750 412 l 755 -22 l 450 -39 l 450 3 q 300 -28 376 -28 q 190 -10 241 -28 q 102 37 139 7 q 7 173 41 87 q -26 353 -26 258 q 68 616 -26 516 q 236 746 149 702 q 412 790 322 790 q 450 789 437 790 l 456 783 z "},"j":{"ha":694,"x_min":4,"x_max":745,"o":"m 517 1289 q 628 1258 583 1289 q 688 1194 673 1226 q 696 1154 696 1176 q 682 1087 696 1121 q 647 1028 667 1054 q 608 1000 626 1003 q 555 994 575 994 q 477 1010 511 994 q 425 1055 444 1025 q 400 1125 405 1085 q 429 1233 400 1183 q 517 1289 457 1284 m 745 11 l 745 -65 q 733 -308 745 -195 q 684 -467 721 -421 q 549 -580 630 -533 q 361 -627 468 -627 q 211 -600 292 -627 q 86 -531 132 -574 q 23 -438 41 -489 q 4 -330 4 -387 q 25 -194 4 -256 q 61 -106 47 -132 l 283 -250 q 281 -273 281 -267 q 310 -339 281 -315 q 380 -363 340 -363 q 444 -342 416 -363 q 478 -283 471 -321 q 486 -167 486 -238 q 473 14 486 -79 l 444 583 l 345 561 l 378 728 l 722 872 l 745 11 z "},"z":{"ha":972,"x_min":-39,"x_max":1044,"o":"m 1000 -94 l -28 -94 l 472 550 l 0 545 l -39 856 l 1044 850 l 494 161 l 1017 161 l 1000 -94 z "},"t":{"ha":868,"x_min":-110,"x_max":880,"o":"m 127 1189 l 424 1322 l 419 867 l 640 861 l 640 600 l 411 597 q 399 416 399 501 q 407 300 399 346 q 441 241 414 262 q 504 221 468 221 q 574 245 544 221 q 604 310 604 269 q 602 334 604 316 l 823 478 q 859 389 838 452 q 880 253 880 327 q 833 92 880 164 q 673 -17 787 20 q 524 -43 594 -43 q 336 4 417 -43 q 201 117 255 51 q 162 218 176 147 q 144 365 149 288 q 140 518 140 441 l 140 595 l -60 589 l -110 895 l 143 878 l 127 1189 z "},"f":{"ha":764,"x_min":-129,"x_max":875,"o":"m 414 505 q 412 342 412 454 q 414 173 412 276 q 419 -15 416 70 q 425 -139 422 -100 l 92 -178 q 83 -50 88 -145 q 76 127 79 46 q 72 283 73 209 q 69 500 71 358 l -90 500 l -129 811 l 81 789 q 77 863 77 840 q 140 1076 77 975 q 380 1227 203 1176 q 576 1257 475 1257 q 736 1227 675 1257 q 828 1167 798 1200 q 875 1061 858 1134 l 636 905 q 589 982 619 949 q 528 1015 559 1015 q 453 945 483 1015 q 446 912 449 937 q 438 843 442 887 q 431 772 433 799 l 610 772 l 610 511 l 414 505 z "},"Z":{"ha":972,"x_min":-111,"x_max":1061,"o":"m 1039 -33 l -28 -94 l 478 1028 l -72 983 l -111 1295 l 1061 1356 l 517 183 l 1055 222 l 1039 -33 z "},"X":{"ha":972,"x_min":-122,"x_max":1078,"o":"m 489 228 l 228 -222 l -122 -233 l 361 550 l -45 1227 l 334 1173 l 522 850 l 705 1173 l 1078 1189 l 684 526 l 1034 -172 l 650 -83 l 489 228 z "},"J":{"ha":903,"x_min":-11,"x_max":958,"o":"m 5 606 l 350 689 q 347 621 349 650 q 346 576 346 593 q 350 513 346 540 q 364 460 353 486 q 395 411 375 434 q 488 347 449 347 q 532 372 513 347 q 567 439 551 396 q 596 708 596 513 q 593 869 596 792 q 580 1091 589 945 q 567 1317 570 1237 l 928 1289 q 950 1070 941 1202 q 958 806 958 938 q 956 663 958 730 q 946 536 952 596 q 930 420 941 475 q 905 322 920 365 q 846 219 890 277 q 751 113 802 161 q 661 41 699 64 q 464 -4 581 -4 q 289 24 376 -4 q 139 106 203 52 q 22 246 56 177 q -11 412 -11 315 q 5 606 -11 474 z "},"A":{"ha":764,"x_min":-306,"x_max":1100,"o":"m 433 1250 l 1100 -355 l 817 -383 l 500 355 l 322 383 l 45 -205 l -306 -222 l 433 1250 m 334 545 l 494 522 l 428 783 l 334 545 z "},"/":{"ha":972,"x_min":-122,"x_max":1078,"o":"m 1078 1189 l 228 -222 l -122 -233 l 705 1173 l 1078 1189 z "},"\\":{"ha":972,"x_min":-45,"x_max":1034,"o":"m 650 -83 l -45 1227 l 334 1173 l 1034 -172 l 650 -83 z "},"*":{"ha":555,"x_min":-94,"x_max":616,"o":"m 155 1295 l 367 1289 l 367 1089 l 500 1206 l 616 1067 l 416 922 l 572 684 l 389 633 l 239 833 l 94 628 l -50 755 l 111 939 l -94 1078 l 39 1234 l 161 1117 l 155 1295 z "},"-":{"ha":625,"x_min":-5,"x_max":661,"o":"m 11 722 l 661 783 l 639 561 l -5 539 l 11 722 z "},"=":{"ha":625,"x_min":-11,"x_max":661,"o":"m 11 839 l 661 900 l 639 677 l -5 656 l 11 839 m 5 545 l 656 606 l 633 383 l -11 361 l 5 545 z "},"[":{"ha":555,"x_min":-45,"x_max":628,"o":"m 0 1211 l 628 1283 l 606 989 l 345 950 l 283 33 l 528 78 l 511 -205 l -45 -294 l 0 1211 z "},"]":{"ha":625,"x_min":-28,"x_max":628,"o":"m 11 1183 l 628 1267 l 572 -89 l 5 -150 l 33 155 q 191 173 97 162 q 294 183 286 183 l 334 950 l -28 917 l 11 1183 z "},"$":{"ha":764,"x_min":-134,"x_max":889,"o":"m 449 -56 q 446 -86 446 -61 q 449 -154 446 -108 q 456 -222 453 -201 l 200 -189 l 215 -22 q 107 6 168 -12 q -7 42 47 24 q -134 83 -62 60 q -101 166 -123 104 q -62 274 -78 229 q -33 354 -46 319 q -17 389 -20 389 q 111 320 2 373 q 278 261 219 268 q 352 245 300 259 q 424 226 404 231 q 469 221 443 221 q 517 233 500 221 q 547 281 547 256 q 406 411 547 336 q 213 538 319 456 q 27 727 106 620 q -53 942 -53 835 q -28 1050 -53 997 q 48 1145 1 1110 q 163 1196 96 1181 q 317 1211 229 1211 q 327 1297 321 1246 q 334 1356 334 1348 l 567 1333 l 557 1175 q 889 1078 668 1149 q 825 908 874 1044 q 772 772 777 772 q 710 808 767 778 q 587 867 654 838 q 478 900 520 895 q 390 921 459 902 q 286 940 320 940 q 239 928 255 940 q 211 882 211 908 q 234 828 211 857 q 294 771 257 800 q 377 715 332 743 q 467 667 422 688 q 624 565 557 622 q 728 450 691 507 q 783 335 766 393 q 800 224 800 276 q 778 111 800 162 q 652 -18 735 20 q 449 -56 568 -56 z "},"à":{"ha":694,"x_min":-26,"x_max":755,"o":"m 450 664 q 377 640 413 659 q 315 595 340 621 q 274 539 289 570 q 260 478 260 508 q 318 378 260 416 q 422 343 370 343 q 450 346 433 343 l 450 490 q 418 500 432 490 q 397 562 397 516 q 450 664 397 629 m 456 783 l 739 911 l 745 532 q 750 452 750 496 q 747 393 750 412 l 755 -22 l 450 -39 l 450 3 q 300 -28 376 -28 q 190 -10 241 -28 q 102 37 139 7 q 7 173 41 87 q -26 353 -26 258 q 68 616 -26 516 q 236 746 149 702 q 412 790 322 790 q 450 789 437 790 l 456 783 m 606 1022 l 528 900 l 89 983 l 244 1222 l 606 1022 z "},"á":{"ha":694,"x_min":-26,"x_max":755,"o":"m 450 664 q 377 640 413 659 q 315 595 340 621 q 274 539 289 570 q 260 478 260 508 q 318 378 260 416 q 422 343 370 343 q 450 346 433 343 l 450 490 q 418 500 432 490 q 397 562 397 516 q 450 664 397 629 m 456 783 l 739 911 l 745 532 q 750 452 750 496 q 747 393 750 412 l 755 -22 l 450 -39 l 450 3 q 300 -28 376 -28 q 190 -10 241 -28 q 102 37 139 7 q 7 173 41 87 q -26 353 -26 258 q 68 616 -26 516 q 236 746 149 702 q 412 790 322 790 q 450 789 437 790 l 456 783 m 89 1022 l 450 1222 l 606 983 l 167 900 l 89 1022 z "},"â":{"ha":694,"x_min":-28,"x_max":761,"o":"m 450 664 q 377 640 413 659 q 315 595 340 621 q 274 539 289 570 q 260 478 260 508 q 318 378 260 416 q 422 343 370 343 q 450 346 433 343 l 450 490 q 418 500 432 490 q 397 562 397 516 q 450 664 397 629 m 456 783 l 739 911 l 745 532 q 750 452 750 496 q 747 393 750 412 l 755 -22 l 450 -39 l 450 3 q 300 -28 376 -28 q 190 -10 241 -28 q 102 37 139 7 q 7 173 41 87 q -26 353 -26 258 q 68 616 -26 516 q 236 746 149 702 q 412 790 322 790 q 450 789 437 790 l 456 783 m 355 1289 l 745 1156 l 761 966 l 355 1100 l -28 983 l 0 1173 l 355 1289 z "},"ã":{"ha":694,"x_min":-26,"x_max":755,"o":"m 450 664 q 377 640 413 659 q 315 595 340 621 q 274 539 289 570 q 260 478 260 508 q 318 378 260 416 q 422 343 370 343 q 450 346 433 343 l 450 490 q 418 500 432 490 q 397 562 397 516 q 450 664 397 629 m 456 783 l 739 911 l 745 532 q 750 452 750 496 q 747 393 750 412 l 755 -22 l 450 -39 l 450 3 q 300 -28 376 -28 q 190 -10 241 -28 q 102 37 139 7 q 7 173 41 87 q -26 353 -26 258 q 68 616 -26 516 q 236 746 149 702 q 412 790 322 790 q 450 789 437 790 l 456 783 m -11 1034 l 5 1189 q 95 1233 34 1206 q 222 1260 156 1260 q 339 1211 296 1260 q 467 1160 383 1160 q 572 1179 519 1160 q 660 1227 625 1198 q 694 1283 694 1256 l 728 1044 q 591 1006 682 1029 q 433 983 500 983 q 355 1006 374 983 q 279 1054 330 1038 q 168 1069 229 1069 q -11 1034 69 1069 z "},"ä":{"ha":694,"x_min":-26,"x_max":755,"o":"m 450 664 q 377 640 413 659 q 315 595 340 621 q 274 539 289 570 q 260 478 260 508 q 318 378 260 416 q 422 343 370 343 q 450 346 433 343 l 450 490 q 418 500 432 490 q 397 562 397 516 q 450 664 397 629 m 456 783 l 739 911 l 745 532 q 750 452 750 496 q 747 393 750 412 l 755 -22 l 450 -39 l 450 3 q 300 -28 376 -28 q 190 -10 241 -28 q 102 37 139 7 q 7 173 41 87 q -26 353 -26 258 q 68 616 -26 516 q 236 746 149 702 q 412 790 322 790 q 450 789 437 790 l 456 783 m -22 1111 q -2 1219 -22 1154 q 89 1283 19 1283 q 215 1240 164 1280 q 267 1141 267 1200 q 261 1105 267 1122 q 202 991 241 1032 q 106 950 162 950 q 16 998 55 955 q -22 1111 -22 1042 m 428 1128 q 449 1236 428 1171 q 539 1300 469 1300 q 666 1257 614 1297 q 717 1158 717 1217 q 711 1122 717 1139 q 652 1008 692 1050 q 555 966 612 966 q 493 990 522 970 q 446 1046 464 1010 q 428 1128 428 1082 z "},"å":{"ha":694,"x_min":-26,"x_max":755,"o":"m 450 664 q 377 640 413 659 q 315 595 340 621 q 274 539 289 570 q 260 478 260 508 q 318 378 260 416 q 422 343 370 343 q 450 346 433 343 l 450 490 q 418 500 432 490 q 397 562 397 516 q 450 664 397 629 m 456 783 l 739 911 l 745 532 q 750 452 750 496 q 747 393 750 412 l 755 -22 l 450 -39 l 450 3 q 300 -28 376 -28 q 190 -10 241 -28 q 102 37 139 7 q 7 173 41 87 q -26 353 -26 258 q 68 616 -26 516 q 236 746 149 702 q 412 790 322 790 q 450 789 437 790 l 456 783 m 228 1128 q 249 1236 228 1171 q 339 1300 269 1300 q 466 1257 414 1297 q 517 1158 517 1217 q 511 1122 517 1139 q 452 1008 492 1050 q 355 966 412 966 q 293 990 321 970 q 246 1046 264 1010 q 228 1128 228 1082 z "},"_":{"ha":833,"x_min":-66,"x_max":889,"o":"m -5 61 l 889 33 l 856 -89 q 659 -85 802 -89 q 376 -79 516 -83 q 108 -71 235 -75 q -66 -66 -19 -68 l -5 61 z "},"<":{"ha":694,"x_min":5,"x_max":822,"o":"m 5 728 l 822 1050 l 794 817 l 444 711 l 766 600 l 733 361 l 5 728 z "},">":{"ha":694,"x_min":-58,"x_max":758,"o":"m 758 728 l 31 361 l -3 600 l 319 711 l -31 817 l -58 1050 l 758 728 z "},"è":{"ha":694,"x_min":-16,"x_max":789,"o":"m 625 375 l 789 178 q 695 73 769 121 q 520 -2 622 26 q 318 -29 419 -29 q 158 -5 229 -29 q 50 66 88 18 q -16 278 -16 149 q 21 478 -16 380 q 100 616 58 577 q 207 694 149 663 q 328 741 265 726 q 456 757 390 757 q 620 729 542 757 q 755 650 697 702 l 383 205 q 477 226 433 205 q 559 285 522 247 q 625 375 596 323 m 437 533 q 370 550 404 550 q 299 535 333 550 q 250 500 264 520 q 208 380 208 446 q 213 335 208 357 q 229 275 218 313 l 437 533 m 606 1022 l 528 900 l 89 983 l 244 1222 l 606 1022 z "},"é":{"ha":694,"x_min":-16,"x_max":789,"o":"m 625 375 l 789 178 q 695 73 769 121 q 520 -2 622 26 q 318 -29 419 -29 q 158 -5 229 -29 q 50 66 88 18 q -16 278 -16 149 q 21 478 -16 380 q 100 616 58 577 q 207 694 149 663 q 328 741 265 726 q 456 757 390 757 q 620 729 542 757 q 755 650 697 702 l 383 205 q 477 226 433 205 q 559 285 522 247 q 625 375 596 323 m 437 533 q 370 550 404 550 q 299 535 333 550 q 250 500 264 520 q 208 380 208 446 q 213 335 208 357 q 229 275 218 313 l 437 533 m 89 1022 l 450 1222 l 606 983 l 167 900 l 89 1022 z "},"ê":{"ha":694,"x_min":-28,"x_max":789,"o":"m 625 375 l 789 178 q 695 73 769 121 q 520 -2 622 26 q 318 -29 419 -29 q 158 -5 229 -29 q 50 66 88 18 q -16 278 -16 149 q 21 478 -16 380 q 100 616 58 577 q 207 694 149 663 q 328 741 265 726 q 456 757 390 757 q 620 729 542 757 q 755 650 697 702 l 383 205 q 477 226 433 205 q 559 285 522 247 q 625 375 596 323 m 437 533 q 370 550 404 550 q 299 535 333 550 q 250 500 264 520 q 208 380 208 446 q 213 335 208 357 q 229 275 218 313 l 437 533 m 355 1289 l 745 1156 l 761 966 l 355 1100 l -28 983 l 0 1173 l 355 1289 z "},"ë":{"ha":694,"x_min":-22,"x_max":789,"o":"m 625 375 l 789 178 q 695 73 769 121 q 520 -2 622 26 q 318 -29 419 -29 q 158 -5 229 -29 q 50 66 88 18 q -16 278 -16 149 q 21 478 -16 380 q 100 616 58 577 q 207 694 149 663 q 328 741 265 726 q 456 757 390 757 q 620 729 542 757 q 755 650 697 702 l 383 205 q 477 226 433 205 q 559 285 522 247 q 625 375 596 323 m 437 533 q 370 550 404 550 q 299 535 333 550 q 250 500 264 520 q 208 380 208 446 q 213 335 208 357 q 229 275 218 313 l 437 533 m -22 1111 q -2 1219 -22 1154 q 89 1283 19 1283 q 215 1240 164 1280 q 267 1141 267 1200 q 261 1105 267 1122 q 202 991 241 1032 q 106 950 162 950 q 16 998 55 955 q -22 1111 -22 1042 m 428 1128 q 449 1236 428 1171 q 539 1300 469 1300 q 666 1257 614 1297 q 717 1158 717 1217 q 711 1122 717 1139 q 652 1008 692 1050 q 555 966 612 966 q 493 990 522 970 q 446 1046 464 1010 q 428 1128 428 1082 z "},"+":{"ha":625,"x_min":-5,"x_max":661,"o":"m 11 722 l 239 743 l 256 956 l 472 956 l 450 761 l 661 783 l 639 561 l 411 554 l 383 328 l 172 328 l 200 547 l -5 539 l 11 722 z "},"&":{"ha":833,"x_min":-102,"x_max":956,"o":"m 278 17 q 61 84 161 29 q -83 256 -39 139 q -102 351 -102 301 q -28 567 -102 450 q 41 654 5 619 q 104 706 76 689 q 146 727 132 722 q 167 733 161 732 q 31 987 31 897 q 39 1028 31 1008 q 161 1155 80 1117 q 355 1193 242 1193 l 361 1317 l 639 1317 l 606 1160 q 715 1131 650 1149 q 852 1089 781 1112 q 956 1055 923 1066 q 892 886 941 1021 q 839 750 843 750 q 812 785 833 758 q 772 822 791 812 q 691 851 751 836 q 568 880 632 867 q 439 900 503 892 q 338 908 374 908 q 306 905 319 908 q 293 889 293 901 q 334 810 293 862 q 436 720 375 759 q 553 681 498 681 q 578 684 562 681 l 583 484 q 311 555 443 499 q 247 507 289 551 q 205 433 205 463 q 222 364 205 404 q 303 288 239 324 q 494 252 368 252 q 822 300 631 252 l 867 89 l 510 28 l 489 -100 l 261 -100 l 278 17 z "},"ì":{"ha":347,"x_min":-56,"x_max":606,"o":"m 367 -127 l 61 -144 l 45 583 l -56 561 l -22 728 l 322 872 l 367 -127 m 606 1022 l 528 900 l 89 983 l 244 1222 l 606 1022 z "},"í":{"ha":347,"x_min":-56,"x_max":606,"o":"m 367 -127 l 61 -144 l 45 583 l -56 561 l -22 728 l 322 872 l 367 -127 m 89 1022 l 450 1222 l 606 983 l 167 900 l 89 1022 z "},"î":{"ha":347,"x_min":-233,"x_max":555,"o":"m 367 -127 l 61 -144 l 45 583 l -56 561 l -22 728 l 322 872 l 367 -127 m 150 1272 l 539 1139 l 555 950 l 150 1083 l -233 966 l -205 1156 l 150 1272 z "},"ï":{"ha":347,"x_min":-228,"x_max":511,"o":"m 367 -127 l 61 -144 l 45 583 l -56 561 l -22 728 l 322 872 l 367 -127 m -228 1117 q -207 1225 -228 1160 q -117 1289 -186 1289 q -28 1268 -69 1287 q 37 1218 13 1249 q 61 1147 61 1187 q 56 1111 61 1128 q -4 997 36 1038 q -100 956 -43 956 q -189 1004 -151 960 q -228 1117 -228 1048 m 222 1133 q 243 1241 222 1177 q 334 1305 264 1305 q 460 1262 409 1302 q 511 1164 511 1222 q 505 1128 511 1143 q 446 1013 485 1054 q 350 972 406 972 q 288 996 317 976 q 240 1052 258 1016 q 222 1133 222 1088 z "},"|":{"ha":416,"x_min":0,"x_max":400,"o":"m 28 1322 l 400 1411 l 383 -400 l 0 -461 l 28 1322 z "},"@":{"ha":903,"x_min":-57,"x_max":958,"o":"m 467 783 q 408 744 442 783 q 345 651 374 705 q 306 550 316 596 q 300 501 300 526 q 350 379 300 427 q 469 309 400 331 q 600 283 538 287 l 555 0 q 357 29 458 0 q 165 123 256 58 q 15 294 75 187 q -56 550 -45 401 q -57 610 -57 570 q -34 802 -57 710 q 43 969 -10 895 q 190 1090 96 1043 q 416 1139 283 1137 q 638 1102 530 1139 q 825 1000 747 1065 q 936 856 904 935 q 958 703 958 800 q 935 534 958 615 q 854 396 911 453 q 705 334 797 339 q 529 369 621 334 q 350 467 438 404 l 511 689 q 552 672 524 682 q 599 663 579 663 q 628 684 626 663 q 602 730 628 707 q 539 766 576 752 q 467 783 503 780 z "},"ò":{"ha":694,"x_min":-26,"x_max":751,"o":"m 615 734 q 693 665 663 709 q 738 567 724 621 q 751 453 751 512 q 744 359 751 404 q 722 275 736 313 q 690 211 709 237 q 599 101 648 147 q 499 27 550 55 q 398 -15 448 -1 q 300 -28 349 -28 q 190 -10 242 -28 q 102 37 138 8 q 7 173 41 87 q -26 353 -26 258 q 68 616 -26 516 q 235 746 149 703 q 411 790 321 790 q 513 777 464 790 q 615 734 562 764 m 575 621 q 525 530 564 569 q 450 490 487 490 q 418 500 432 490 q 397 557 397 516 q 418 618 397 588 q 484 667 439 649 q 397 650 439 667 q 326 606 355 633 q 278 546 296 579 q 260 478 260 512 q 318 378 260 415 q 421 343 372 343 q 507 375 469 343 q 564 458 544 408 q 583 558 583 509 q 575 621 583 592 m 606 1022 l 528 900 l 89 983 l 244 1222 l 606 1022 z "},"ó":{"ha":694,"x_min":-26,"x_max":751,"o":"m 615 734 q 693 665 663 709 q 738 567 724 621 q 751 453 751 512 q 744 359 751 404 q 722 275 736 313 q 690 211 709 237 q 599 101 648 147 q 499 27 550 55 q 398 -15 448 -1 q 300 -28 349 -28 q 190 -10 242 -28 q 102 37 138 8 q 7 173 41 87 q -26 353 -26 258 q 68 616 -26 516 q 235 746 149 703 q 411 790 321 790 q 513 777 464 790 q 615 734 562 764 m 575 621 q 525 530 564 569 q 450 490 487 490 q 418 500 432 490 q 397 557 397 516 q 418 618 397 588 q 484 667 439 649 q 397 650 439 667 q 326 606 355 633 q 278 546 296 579 q 260 478 260 512 q 318 378 260 415 q 421 343 372 343 q 507 375 469 343 q 564 458 544 408 q 583 558 583 509 q 575 621 583 592 m 89 1022 l 450 1222 l 606 983 l 167 900 l 89 1022 z "},"ô":{"ha":694,"x_min":-28,"x_max":761,"o":"m 615 734 q 693 665 663 709 q 738 567 724 621 q 751 453 751 512 q 744 359 751 404 q 722 275 736 313 q 690 211 709 237 q 599 101 648 147 q 499 27 550 55 q 398 -15 448 -1 q 300 -28 349 -28 q 190 -10 242 -28 q 102 37 138 8 q 7 173 41 87 q -26 353 -26 258 q 68 616 -26 516 q 235 746 149 703 q 411 790 321 790 q 513 777 464 790 q 615 734 562 764 m 575 621 q 525 530 564 569 q 450 490 487 490 q 418 500 432 490 q 397 557 397 516 q 418 618 397 588 q 484 667 439 649 q 397 650 439 667 q 326 606 355 633 q 278 546 296 579 q 260 478 260 512 q 318 378 260 415 q 421 343 372 343 q 507 375 469 343 q 564 458 544 408 q 583 558 583 509 q 575 621 583 592 m 355 1289 l 745 1156 l 761 966 l 355 1100 l -28 983 l 0 1173 l 355 1289 z "},"õ":{"ha":694,"x_min":-26,"x_max":751,"o":"m 615 734 q 693 665 663 709 q 738 567 724 621 q 751 453 751 512 q 744 359 751 404 q 722 275 736 313 q 690 211 709 237 q 599 101 648 147 q 499 27 550 55 q 398 -15 448 -1 q 300 -28 349 -28 q 190 -10 242 -28 q 102 37 138 8 q 7 173 41 87 q -26 353 -26 258 q 68 616 -26 516 q 235 746 149 703 q 411 790 321 790 q 513 777 464 790 q 615 734 562 764 m 575 621 q 525 530 564 569 q 450 490 487 490 q 418 500 432 490 q 397 557 397 516 q 418 618 397 588 q 484 667 439 649 q 397 650 439 667 q 326 606 355 633 q 278 546 296 579 q 260 478 260 512 q 318 378 260 415 q 421 343 372 343 q 507 375 469 343 q 564 458 544 408 q 583 558 583 509 q 575 621 583 592 m -11 1034 l 5 1189 q 95 1233 34 1206 q 222 1260 156 1260 q 339 1211 296 1260 q 467 1160 383 1160 q 572 1179 519 1160 q 660 1227 625 1198 q 694 1283 694 1256 l 728 1044 q 591 1006 682 1029 q 433 983 500 983 q 355 1006 374 983 q 279 1054 330 1038 q 168 1069 229 1069 q -11 1034 69 1069 z "},"ö":{"ha":694,"x_min":-26,"x_max":751,"o":"m 615 734 q 693 665 663 709 q 738 567 724 621 q 751 453 751 512 q 744 359 751 404 q 722 275 736 313 q 690 211 709 237 q 599 101 648 147 q 499 27 550 55 q 398 -15 448 -1 q 300 -28 349 -28 q 190 -10 242 -28 q 102 37 138 8 q 7 173 41 87 q -26 353 -26 258 q 68 616 -26 516 q 235 746 149 703 q 411 790 321 790 q 513 777 464 790 q 615 734 562 764 m 575 621 q 525 530 564 569 q 450 490 487 490 q 418 500 432 490 q 397 557 397 516 q 418 618 397 588 q 484 667 439 649 q 397 650 439 667 q 326 606 355 633 q 278 546 296 579 q 260 478 260 512 q 318 378 260 415 q 421 343 372 343 q 507 375 469 343 q 564 458 544 408 q 583 558 583 509 q 575 621 583 592 m -22 1111 q -2 1219 -22 1154 q 89 1283 19 1283 q 215 1240 164 1280 q 267 1141 267 1200 q 261 1105 267 1122 q 202 991 241 1032 q 106 950 162 950 q 16 998 55 955 q -22 1111 -22 1042 m 428 1128 q 449 1236 428 1171 q 539 1300 469 1300 q 666 1257 614 1297 q 717 1158 717 1217 q 711 1122 717 1139 q 652 1008 692 1050 q 555 966 612 966 q 493 990 522 970 q 446 1046 464 1010 q 428 1128 428 1082 z "},"(":{"ha":555,"x_min":5,"x_max":616,"o":"m 528 78 l 494 -244 q 263 -47 358 -146 q 112 149 169 52 q 31 337 56 245 q 5 511 5 428 q 8 567 5 530 q 101 848 23 720 q 282 1066 180 975 q 478 1212 384 1157 q 616 1278 572 1266 l 578 1000 q 489 925 549 980 q 361 773 429 871 q 275 562 294 675 q 269 501 269 528 q 331 293 269 399 q 528 78 392 186 z "},")":{"ha":555,"x_min":-61,"x_max":550,"o":"m 28 78 q 225 292 164 185 q 286 501 286 398 q 281 562 286 524 q 194 773 262 676 q 66 925 127 871 q -22 1000 6 980 l -61 1278 q 78 1212 -16 1267 q 274 1066 172 1156 q 455 847 376 975 q 547 567 533 719 q 550 511 550 530 q 526 335 550 425 q 444 149 501 246 q 293 -47 387 52 q 61 -244 198 -146 l 28 78 z "},"{":{"ha":555,"x_min":5,"x_max":616,"o":"m 528 78 l 494 -244 q 263 -47 358 -146 q 112 149 169 52 q 31 337 56 245 q 5 511 5 428 q 8 567 5 530 q 101 848 23 720 q 282 1066 180 975 q 478 1212 384 1157 q 616 1278 572 1266 l 578 1000 q 489 925 549 980 q 361 773 429 871 q 275 562 294 675 q 269 501 269 528 q 331 293 269 399 q 528 78 392 186 z "},"}":{"ha":555,"x_min":-61,"x_max":550,"o":"m 28 78 q 225 292 164 185 q 286 501 286 398 q 281 562 286 524 q 194 773 262 676 q 66 925 127 871 q -22 1000 6 980 l -61 1278 q 78 1212 -16 1267 q 274 1066 172 1156 q 455 847 376 975 q 547 567 533 719 q 550 511 550 530 q 526 335 550 425 q 444 149 501 246 q 293 -47 387 52 q 61 -244 198 -146 l 28 78 z "},"ù":{"ha":833,"x_min":0,"x_max":897,"o":"m 28 844 l 361 806 q 349 541 349 645 q 352 450 349 488 q 361 381 355 412 q 378 328 368 350 q 456 231 420 231 q 511 300 483 231 q 545 394 530 348 q 568 483 560 441 q 581 575 576 525 q 585 685 585 625 q 583 778 585 745 l 867 761 q 893 592 889 621 q 897 519 897 563 q 861 300 897 446 q 783 144 844 226 q 667 31 723 63 q 461 -20 578 -20 q 303 3 380 -20 q 161 72 226 26 q 65 182 101 114 q 14 330 28 250 q 0 507 0 410 q 4 620 0 566 q 14 731 7 674 q 28 844 20 787 m 711 1022 l 633 900 l 195 983 l 350 1222 l 711 1022 z "},"ú":{"ha":833,"x_min":0,"x_max":897,"o":"m 28 844 l 361 806 q 349 541 349 645 q 352 450 349 488 q 361 381 355 412 q 378 328 368 350 q 456 231 420 231 q 511 300 483 231 q 545 394 530 348 q 568 483 560 441 q 581 575 576 525 q 585 685 585 625 q 583 778 585 745 l 867 761 q 893 592 889 621 q 897 519 897 563 q 861 300 897 446 q 783 144 844 226 q 667 31 723 63 q 461 -20 578 -20 q 303 3 380 -20 q 161 72 226 26 q 65 182 101 114 q 14 330 28 250 q 0 507 0 410 q 4 620 0 566 q 14 731 7 674 q 28 844 20 787 m 216 1034 l 578 1234 l 733 994 l 294 911 l 216 1034 z "},"û":{"ha":833,"x_min":0,"x_max":897,"o":"m 28 844 l 361 806 q 349 541 349 645 q 352 450 349 488 q 361 381 355 412 q 378 328 368 350 q 456 231 420 231 q 511 300 483 231 q 545 394 530 348 q 568 483 560 441 q 581 575 576 525 q 585 685 585 625 q 583 778 585 745 l 867 761 q 893 592 889 621 q 897 519 897 563 q 861 300 897 446 q 783 144 844 226 q 667 31 723 63 q 461 -20 578 -20 q 303 3 380 -20 q 161 72 226 26 q 65 182 101 114 q 14 330 28 250 q 0 507 0 410 q 4 620 0 566 q 14 731 7 674 q 28 844 20 787 m 416 1283 l 806 1150 l 822 961 l 416 1095 l 33 978 l 61 1166 l 416 1283 z "},"ü":{"ha":833,"x_min":0,"x_max":897,"o":"m 28 844 l 361 806 q 349 541 349 645 q 352 450 349 488 q 361 381 355 412 q 378 328 368 350 q 456 231 420 231 q 511 300 483 231 q 545 394 530 348 q 568 483 560 441 q 581 575 576 525 q 585 685 585 625 q 583 778 585 745 l 867 761 q 893 592 889 621 q 897 519 897 563 q 861 300 897 446 q 783 144 844 226 q 667 31 723 63 q 461 -20 578 -20 q 303 3 380 -20 q 161 72 226 26 q 65 182 101 114 q 14 330 28 250 q 0 507 0 410 q 4 620 0 566 q 14 731 7 674 q 28 844 20 787 m 50 1111 q 71 1219 50 1154 q 161 1283 92 1283 q 288 1240 237 1280 q 339 1141 339 1200 q 334 1105 339 1122 q 274 991 314 1032 q 178 950 234 950 q 115 974 144 954 q 68 1029 86 994 q 50 1111 50 1065 m 500 1128 q 520 1236 500 1171 q 611 1300 541 1300 q 738 1257 686 1297 q 789 1158 789 1217 q 783 1122 789 1139 q 724 1008 764 1050 q 628 966 684 966 q 566 990 595 970 q 518 1046 537 1010 q 500 1128 500 1082 z "},"#":{"ha":764,"x_min":-22,"x_max":789,"o":"m 350 872 l 334 783 l 461 783 l 478 872 l 350 872 m 700 1267 l 677 1078 l 789 1078 l 745 867 l 667 878 l 650 778 l 728 783 l 700 578 l 623 578 l 595 478 l 422 467 l 428 583 l 283 583 l 261 456 l 100 428 l 122 589 l -22 583 l -5 778 l 155 783 l 161 867 l 17 878 l 33 1083 l 211 1083 l 216 1267 l 400 1261 l 372 1083 l 500 1083 l 550 1267 l 700 1267 z "},"ý":{"ha":903,"x_min":-56,"x_max":956,"o":"m -56 661 l 216 789 l 489 283 l 656 750 l 956 633 l 450 -589 l 183 -489 l 339 -66 l -56 661 m 172 1034 l 533 1234 l 689 994 l 250 911 l 172 1034 z "},"ÿ":{"ha":903,"x_min":-56,"x_max":956,"o":"m -56 661 l 216 789 l 489 283 l 656 750 l 956 633 l 450 -589 l 183 -489 l 339 -66 l -56 661 m 66 1111 q 87 1219 66 1154 q 178 1283 108 1283 q 304 1240 254 1280 q 355 1141 355 1201 q 350 1105 355 1122 q 291 991 330 1032 q 195 950 251 950 q 133 973 162 954 q 85 1029 104 993 q 66 1111 66 1065 m 517 1128 q 537 1236 517 1171 q 628 1300 558 1300 q 754 1257 703 1297 q 806 1158 806 1217 q 800 1122 806 1139 q 741 1008 781 1050 q 644 966 701 966 q 582 990 610 970 q 535 1046 553 1010 q 517 1128 517 1082 z "},"æ":{"ha":1250,"x_min":-26,"x_max":1255,"o":"m 450 664 q 377 640 413 659 q 315 595 340 621 q 274 539 289 570 q 260 478 260 508 q 318 378 260 416 q 422 343 370 343 q 450 346 433 343 l 450 490 q 418 500 432 490 q 397 562 397 516 q 450 664 397 629 m 904 533 q 836 550 871 550 q 765 535 800 550 q 717 500 731 520 q 675 380 675 446 q 680 335 675 357 q 696 275 684 313 l 904 533 m 745 728 q 930 761 853 761 q 1022 749 977 761 q 1115 712 1066 736 q 1222 650 1163 688 l 850 205 q 944 226 899 205 q 1025 285 988 247 q 1092 375 1063 323 l 1255 178 q 1158 74 1235 121 q 972 0 1080 26 q 765 -26 865 -26 q 616 -7 681 -26 q 517 50 551 12 l 422 0 q 272 -17 334 -17 q 102 37 168 -17 q 7 173 41 87 q -26 353 -26 258 q 68 616 -26 516 q 236 746 149 702 q 412 790 322 790 q 450 789 437 790 l 456 783 l 739 911 l 745 728 z "},"ø":{"ha":694,"x_min":-106,"x_max":800,"o":"m 575 621 q 525 530 564 569 q 450 490 487 490 q 418 500 432 490 q 397 557 397 516 q 418 618 397 588 q 484 667 439 649 q 397 650 439 667 q 326 606 355 633 q 278 546 296 579 q 260 478 260 512 q 318 378 260 415 q 421 343 372 343 q 507 375 469 343 q 564 458 544 408 q 583 558 583 509 q 575 621 583 592 m 7 172 q -28 353 -28 256 q -4 496 -28 427 q 68 616 20 566 q 235 746 148 701 q 411 790 321 790 q 582 751 498 790 l 650 844 q 702 799 666 830 q 769 738 737 768 q 800 705 800 709 l 711 606 q 747 432 747 526 q 732 310 747 369 q 690 211 717 250 q 599 101 648 147 q 499 27 550 55 q 398 -15 448 -1 q 300 -28 349 -28 q 155 4 223 -28 l 50 -89 l -106 39 l 7 172 z "},"À":{"ha":764,"x_min":-306,"x_max":1100,"o":"m 428 783 l 334 545 l 494 522 l 428 783 m 433 1250 l 1100 -355 l 817 -383 l 500 355 l 322 383 l 45 -205 l -306 -222 l 433 1250 m 672 1417 l 595 1295 l 155 1378 l 311 1617 l 672 1417 z "},"Á":{"ha":764,"x_min":-306,"x_max":1100,"o":"m 428 783 l 334 545 l 494 522 l 428 783 m 433 1250 l 1100 -355 l 817 -383 l 500 355 l 322 383 l 45 -205 l -306 -222 l 433 1250 m 161 1434 l 522 1633 l 677 1394 l 239 1311 l 161 1434 z "},"Â":{"ha":764,"x_min":-306,"x_max":1100,"o":"m 428 783 l 334 545 l 494 522 l 428 783 m 433 1250 l 1100 -355 l 817 -383 l 500 355 l 322 383 l 45 -205 l -306 -222 l 433 1250 m 422 1611 l 811 1478 l 828 1289 l 422 1422 l 39 1305 l 66 1495 l 422 1611 z "},"Ã":{"ha":764,"x_min":-306,"x_max":1100,"o":"m 428 783 l 334 545 l 494 522 l 428 783 m 433 1250 l 1100 -355 l 817 -383 l 500 355 l 322 383 l 45 -205 l -306 -222 l 433 1250 m 22 1422 l 39 1578 q 129 1622 67 1596 q 256 1649 191 1649 q 372 1600 330 1649 q 500 1549 416 1549 q 605 1568 552 1549 q 693 1616 659 1587 q 728 1672 728 1645 l 761 1434 q 625 1395 715 1418 q 467 1372 534 1372 q 389 1394 408 1372 q 201 1458 337 1458 q 22 1422 100 1458 z "},"Ä":{"ha":764,"x_min":-306,"x_max":1100,"o":"m 428 783 l 334 545 l 494 522 l 428 783 m 433 1250 l 1100 -355 l 817 -383 l 500 355 l 322 383 l 45 -205 l -306 -222 l 433 1250 m 66 1478 q 87 1586 66 1521 q 178 1650 108 1650 q 304 1607 254 1647 q 355 1508 355 1568 q 350 1472 355 1489 q 291 1358 330 1399 q 195 1317 251 1317 q 133 1340 162 1320 q 85 1396 104 1360 q 66 1478 66 1432 m 517 1495 q 537 1603 517 1538 q 628 1667 558 1667 q 716 1646 675 1665 q 782 1596 758 1627 q 806 1525 806 1565 q 800 1489 806 1506 q 741 1374 781 1415 q 644 1333 701 1333 q 555 1381 594 1337 q 517 1495 517 1426 z "},"Å":{"ha":764,"x_min":-306,"x_max":1100,"o":"m 428 783 l 334 545 l 494 522 l 428 783 m 433 1250 l 1100 -355 l 817 -383 l 500 355 l 322 383 l 45 -205 l -306 -222 l 433 1250 m 272 1506 q 293 1613 272 1549 q 383 1678 313 1678 q 510 1635 459 1674 q 561 1536 561 1596 q 555 1500 561 1516 q 496 1386 536 1428 q 400 1344 456 1344 q 338 1368 367 1348 q 291 1424 309 1388 q 272 1506 272 1460 z "},"›":{"ha":694,"x_min":-58,"x_max":758,"o":"m 758 728 l 31 361 l -3 600 l 319 711 l -31 817 l -58 1050 l 758 728 z "},"‹":{"ha":694,"x_min":5,"x_max":822,"o":"m 5 728 l 822 1050 l 794 817 l 444 711 l 766 600 l 733 361 l 5 728 z "},"„":{"ha":694,"x_min":-61,"x_max":637,"o":"m 193 -29 l 49 -9 l -61 424 l 221 383 l 193 -29 m 610 -29 l 465 -9 l 355 424 l 637 383 l 610 -29 z "},"‚":{"ha":278,"x_min":-14,"x_max":268,"o":"m 240 -18 l 96 1 l -14 435 l 268 395 l 240 -18 z "},"È":{"ha":764,"x_min":-78,"x_max":1067,"o":"m 355 89 l 1067 56 l 1061 -239 l 72 -189 l 17 833 l -78 817 l -61 1139 l 761 1261 l 778 966 l 311 889 l 322 677 l 783 755 l 800 511 l 334 422 l 355 89 m 672 1417 l 595 1295 l 155 1378 l 311 1617 l 672 1417 z "},"É":{"ha":764,"x_min":-78,"x_max":1067,"o":"m 355 89 l 1067 56 l 1061 -239 l 72 -189 l 17 833 l -78 817 l -61 1139 l 761 1261 l 778 966 l 311 889 l 322 677 l 783 755 l 800 511 l 334 422 l 355 89 m 161 1434 l 522 1633 l 677 1394 l 239 1311 l 161 1434 z "},"Ê":{"ha":764,"x_min":-78,"x_max":1067,"o":"m 355 89 l 1067 56 l 1061 -239 l 72 -189 l 17 833 l -78 817 l -61 1139 l 761 1261 l 778 966 l 311 889 l 322 677 l 783 755 l 800 511 l 334 422 l 355 89 m 422 1611 l 811 1478 l 828 1289 l 422 1422 l 39 1305 l 66 1495 l 422 1611 z "},"Ë":{"ha":764,"x_min":-78,"x_max":1067,"o":"m 355 89 l 1067 56 l 1061 -239 l 72 -189 l 17 833 l -78 817 l -61 1139 l 761 1261 l 778 966 l 311 889 l 322 677 l 783 755 l 800 511 l 334 422 l 355 89 m 66 1478 q 87 1586 66 1521 q 178 1650 108 1650 q 304 1607 254 1647 q 355 1508 355 1568 q 350 1472 355 1489 q 291 1358 330 1399 q 195 1317 251 1317 q 133 1340 162 1320 q 85 1396 104 1360 q 66 1478 66 1432 m 517 1495 q 537 1603 517 1538 q 628 1667 558 1667 q 716 1646 675 1665 q 782 1596 758 1627 q 806 1525 806 1565 q 800 1489 806 1506 q 741 1374 781 1415 q 644 1333 701 1333 q 555 1381 594 1337 q 517 1495 517 1426 z "},"…":{"ha":903,"x_min":-5,"x_max":951,"o":"m 111 283 q 194 268 159 283 q 252 229 229 252 q 282 189 274 206 q 290 149 290 170 q 276 82 290 115 q 241 23 262 48 q 203 -5 220 -3 q 150 -11 166 -11 q 42 24 83 -11 q -5 119 2 59 q 23 228 -5 178 q 111 283 51 278 m 444 289 q 527 273 492 289 q 585 235 563 257 q 615 195 606 214 q 624 154 624 174 q 610 87 624 121 q 575 28 595 54 q 536 0 554 3 q 484 -5 500 -5 q 376 29 417 -5 q 328 125 336 64 q 356 233 328 183 q 444 289 384 283 m 772 294 q 856 278 821 294 q 913 240 890 262 q 943 200 935 217 q 951 160 951 181 q 937 93 951 127 q 902 34 923 59 q 864 5 882 8 q 811 0 827 0 q 733 16 766 0 q 680 61 700 31 q 656 131 661 91 q 684 239 656 189 q 772 294 712 289 z "},"¢":{"ha":833,"x_min":-57,"x_max":936,"o":"m 306 28 q 162 67 224 37 q 55 158 100 98 q -18 313 10 218 q -56 550 -45 408 q -57 610 -57 570 q -22 840 -57 732 q 96 1027 12 948 q 317 1131 179 1106 l 322 1272 q 567 1267 567 1272 l 561 1111 q 734 1060 656 1094 q 865 974 812 1025 q 936 856 918 922 l 632 657 q 428 733 602 733 q 347 677 389 733 q 306 550 306 621 q 338 447 309 496 q 439 395 366 398 q 553 424 493 395 q 656 541 612 453 q 712 490 659 535 q 822 399 766 444 q 904 332 878 353 q 812 182 867 243 q 691 85 756 120 q 555 33 627 50 l 550 -83 l 300 -83 l 306 28 z "},"Ò":{"ha":1042,"x_min":-46,"x_max":1105,"o":"m 945 1017 q 1105 689 1105 894 q 1085 544 1105 618 q 1029 400 1065 469 q 950 278 994 332 q 809 130 879 190 q 669 32 740 69 q 533 -23 599 -6 q 404 -40 467 -40 q 139 39 258 -40 q 6 208 59 93 q -46 456 -46 323 q 89 822 -46 668 q 256 983 168 913 q 437 1094 343 1054 q 628 1135 530 1135 q 945 1017 789 1135 m 811 842 q 756 716 798 766 q 671 667 715 667 q 623 688 643 667 q 605 720 612 699 q 597 762 597 742 q 622 844 597 804 q 701 914 647 884 q 590 884 636 914 q 523 807 545 854 q 501 710 501 760 q 547 595 501 631 q 659 550 603 550 q 774 611 727 550 q 821 762 821 672 q 811 842 821 804 m 672 1417 l 595 1295 l 155 1378 l 311 1617 l 672 1417 z "},"Ó":{"ha":1042,"x_min":-46,"x_max":1105,"o":"m 945 1017 q 1105 689 1105 894 q 1085 544 1105 618 q 1029 400 1065 469 q 950 278 994 332 q 809 130 879 190 q 669 32 740 69 q 533 -23 599 -6 q 404 -40 467 -40 q 139 39 258 -40 q 6 208 59 93 q -46 456 -46 323 q 89 822 -46 668 q 256 983 168 913 q 437 1094 343 1054 q 628 1135 530 1135 q 945 1017 789 1135 m 811 842 q 756 716 798 766 q 671 667 715 667 q 623 688 643 667 q 605 720 612 699 q 597 762 597 742 q 622 844 597 804 q 701 914 647 884 q 590 884 636 914 q 523 807 545 854 q 501 710 501 760 q 547 595 501 631 q 659 550 603 550 q 774 611 727 550 q 821 762 821 672 q 811 842 821 804 m 395 1444 l 755 1645 l 911 1406 l 472 1322 l 395 1444 z "},"Ô":{"ha":1042,"x_min":-46,"x_max":1105,"o":"m 945 1017 q 1105 689 1105 894 q 1085 544 1105 618 q 1029 400 1065 469 q 950 278 994 332 q 809 130 879 190 q 669 32 740 69 q 533 -23 599 -6 q 404 -40 467 -40 q 139 39 258 -40 q 6 208 59 93 q -46 456 -46 323 q 89 822 -46 668 q 256 983 168 913 q 437 1094 343 1054 q 628 1135 530 1135 q 945 1017 789 1135 m 811 842 q 756 716 798 766 q 671 667 715 667 q 623 688 643 667 q 605 720 612 699 q 597 762 597 742 q 622 844 597 804 q 701 914 647 884 q 590 884 636 914 q 523 807 545 854 q 501 710 501 760 q 547 595 501 631 q 659 550 603 550 q 774 611 727 550 q 821 762 821 672 q 811 842 821 804 m 545 1617 l 933 1483 l 950 1295 l 545 1428 l 161 1311 l 189 1500 l 545 1617 z "},"Õ":{"ha":1042,"x_min":-46,"x_max":1105,"o":"m 945 1017 q 1105 689 1105 894 q 1085 544 1105 618 q 1029 400 1065 469 q 950 278 994 332 q 809 130 879 190 q 669 32 740 69 q 533 -23 599 -6 q 404 -40 467 -40 q 139 39 258 -40 q 6 208 59 93 q -46 456 -46 323 q 89 822 -46 668 q 256 983 168 913 q 437 1094 343 1054 q 628 1135 530 1135 q 945 1017 789 1135 m 811 842 q 756 716 798 766 q 671 667 715 667 q 623 688 643 667 q 605 720 612 699 q 597 762 597 742 q 622 844 597 804 q 701 914 647 884 q 590 884 636 914 q 523 807 545 854 q 501 710 501 760 q 547 595 501 631 q 659 550 603 550 q 774 611 727 550 q 821 762 821 672 q 811 842 821 804 m 205 1428 l 222 1584 q 313 1628 251 1601 q 439 1654 374 1654 q 555 1605 513 1654 q 684 1554 599 1554 q 788 1573 735 1554 q 876 1622 842 1592 q 911 1678 911 1651 l 945 1439 q 808 1401 899 1424 q 650 1378 717 1378 q 572 1400 591 1378 q 385 1464 519 1464 q 288 1454 336 1464 q 205 1428 241 1444 z "},"Ö":{"ha":1042,"x_min":-46,"x_max":1105,"o":"m 945 1017 q 1105 689 1105 894 q 1085 544 1105 618 q 1029 400 1065 469 q 950 278 994 332 q 809 130 879 190 q 669 32 740 69 q 533 -23 599 -6 q 404 -40 467 -40 q 139 39 258 -40 q 6 208 59 93 q -46 456 -46 323 q 89 822 -46 668 q 256 983 168 913 q 437 1094 343 1054 q 628 1135 530 1135 q 945 1017 789 1135 m 811 842 q 756 716 798 766 q 671 667 715 667 q 623 688 643 667 q 605 720 612 699 q 597 762 597 742 q 622 844 597 804 q 701 914 647 884 q 590 884 636 914 q 523 807 545 854 q 501 710 501 760 q 547 595 501 631 q 659 550 603 550 q 774 611 727 550 q 821 762 821 672 q 811 842 821 804 m 178 1478 q 198 1586 178 1521 q 289 1650 219 1650 q 415 1607 364 1647 q 467 1508 467 1567 q 461 1472 467 1489 q 402 1358 441 1399 q 306 1317 362 1317 q 216 1365 255 1322 q 178 1478 178 1409 m 628 1495 q 649 1603 628 1538 q 739 1667 669 1667 q 828 1646 787 1665 q 893 1596 869 1627 q 917 1525 917 1565 q 911 1489 917 1505 q 851 1374 890 1415 q 755 1333 812 1333 q 667 1381 705 1337 q 628 1495 628 1426 z "},"¨":{"ha":694,"x_min":-22,"x_max":717,"o":"m -22 1111 q -2 1219 -22 1154 q 89 1283 19 1283 q 215 1240 164 1280 q 267 1141 267 1200 q 261 1105 267 1122 q 202 991 241 1032 q 106 950 162 950 q 16 998 55 955 q -22 1111 -22 1042 m 428 1128 q 449 1236 428 1171 q 539 1300 469 1300 q 666 1257 614 1297 q 717 1158 717 1217 q 711 1122 717 1139 q 652 1008 692 1050 q 555 966 612 966 q 493 990 522 970 q 446 1046 464 1010 q 428 1128 428 1082 z "},"»":{"ha":1320,"x_min":-58,"x_max":1383,"o":"m 758 728 l 31 361 l -3 600 l 319 711 l -31 817 l -58 1050 l 758 728 m 1383 728 l 656 361 l 623 600 l 945 711 l 595 817 l 567 1050 l 1383 728 z "},"«":{"ha":1320,"x_min":5,"x_max":1447,"o":"m 5 728 l 822 1050 l 794 817 l 444 711 l 766 600 l 733 361 l 5 728 m 631 728 l 1447 1050 l 1419 817 l 1069 711 l 1392 600 l 1358 361 l 631 728 z "},"Ù":{"ha":903,"x_min":-122,"x_max":958,"o":"m 345 1267 q 340 1121 340 1204 q 350 845 340 997 q 375 575 360 693 q 406 422 390 457 q 481 345 440 345 q 528 371 505 345 q 567 439 551 397 q 596 686 596 513 q 593 820 596 755 q 585 961 590 884 q 574 1124 580 1038 q 567 1239 568 1210 l 928 1211 q 950 1004 941 1123 q 958 766 958 884 q 946 522 958 635 q 905 322 934 408 q 846 219 890 277 q 751 113 802 161 q 661 41 699 64 q 464 -4 581 -4 q 289 24 376 -4 q 139 106 203 52 q 67 217 97 142 q 19 395 38 291 q -7 609 1 499 q -16 825 -16 719 q 0 1105 -16 987 l -117 1133 l -122 1305 l 345 1267 m 672 1417 l 595 1295 l 155 1378 l 311 1617 l 672 1417 z "},"Ú":{"ha":903,"x_min":-122,"x_max":958,"o":"m 345 1267 q 340 1121 340 1204 q 350 845 340 997 q 375 575 360 693 q 406 422 390 457 q 481 345 440 345 q 528 371 505 345 q 567 439 551 397 q 596 686 596 513 q 593 820 596 755 q 585 961 590 884 q 574 1124 580 1038 q 567 1239 568 1210 l 928 1211 q 950 1004 941 1123 q 958 766 958 884 q 946 522 958 635 q 905 322 934 408 q 846 219 890 277 q 751 113 802 161 q 661 41 699 64 q 464 -4 581 -4 q 289 24 376 -4 q 139 106 203 52 q 67 217 97 142 q 19 395 38 291 q -7 609 1 499 q -16 825 -16 719 q 0 1105 -16 987 l -117 1133 l -122 1305 l 345 1267 m 161 1434 l 522 1633 l 677 1394 l 239 1311 l 161 1434 z "},"Û":{"ha":903,"x_min":-122,"x_max":958,"o":"m 345 1267 q 340 1121 340 1204 q 350 845 340 997 q 375 575 360 693 q 406 422 390 457 q 481 345 440 345 q 528 371 505 345 q 567 439 551 397 q 596 686 596 513 q 593 820 596 755 q 585 961 590 884 q 574 1124 580 1038 q 567 1239 568 1210 l 928 1211 q 950 1004 941 1123 q 958 766 958 884 q 946 522 958 635 q 905 322 934 408 q 846 219 890 277 q 751 113 802 161 q 661 41 699 64 q 464 -4 581 -4 q 289 24 376 -4 q 139 106 203 52 q 67 217 97 142 q 19 395 38 291 q -7 609 1 499 q -16 825 -16 719 q 0 1105 -16 987 l -117 1133 l -122 1305 l 345 1267 m 422 1611 l 811 1478 l 828 1289 l 422 1422 l 39 1305 l 66 1495 l 422 1611 z "},"Ü":{"ha":903,"x_min":-122,"x_max":958,"o":"m 345 1267 q 340 1121 340 1204 q 350 845 340 997 q 375 575 360 693 q 406 422 390 457 q 481 345 440 345 q 528 371 505 345 q 567 439 551 397 q 596 686 596 513 q 593 820 596 755 q 585 961 590 884 q 574 1124 580 1038 q 567 1239 568 1210 l 928 1211 q 950 1004 941 1123 q 958 766 958 884 q 946 522 958 635 q 905 322 934 408 q 846 219 890 277 q 751 113 802 161 q 661 41 699 64 q 464 -4 581 -4 q 289 24 376 -4 q 139 106 203 52 q 67 217 97 142 q 19 395 38 291 q -7 609 1 499 q -16 825 -16 719 q 0 1105 -16 987 l -117 1133 l -122 1305 l 345 1267 m 66 1478 q 87 1586 66 1521 q 178 1650 108 1650 q 304 1607 254 1647 q 355 1508 355 1568 q 350 1472 355 1489 q 291 1358 330 1399 q 195 1317 251 1317 q 133 1340 162 1320 q 85 1396 104 1360 q 66 1478 66 1432 m 517 1495 q 537 1603 517 1538 q 628 1667 558 1667 q 716 1646 675 1665 q 782 1596 758 1627 q 806 1525 806 1565 q 800 1489 806 1506 q 741 1374 781 1415 q 644 1333 701 1333 q 555 1381 594 1337 q 517 1495 517 1426 z "},"Ø":{"ha":1042,"x_min":-106,"x_max":1133,"o":"m 811 842 q 756 716 798 766 q 671 667 715 667 q 623 688 643 667 q 605 720 612 699 q 597 762 597 742 q 622 844 597 804 q 701 914 647 884 q 590 884 636 914 q 523 807 545 854 q 501 710 501 760 q 547 595 501 631 q 659 550 603 550 q 774 611 727 550 q 821 762 821 672 q 811 842 821 804 m -106 56 l 18 183 q -45 456 -45 308 q -13 649 -45 556 q 89 822 19 743 q 256 983 168 913 q 437 1094 343 1054 q 628 1135 530 1135 q 817 1093 722 1135 q 879 1160 843 1122 q 928 1211 916 1199 l 1133 1061 l 1028 932 q 1105 689 1105 829 q 1094 579 1105 633 q 1062 472 1082 525 q 1011 369 1041 419 q 950 278 982 318 q 675 35 814 109 q 404 -40 536 -40 q 200 5 296 -40 l 78 -100 l -106 56 z "},"Ì":{"ha":764,"x_min":-78,"x_max":789,"o":"m 444 311 l 789 306 l 783 11 l -33 11 l 0 272 l 189 278 l 216 867 l -78 817 l -61 1139 l 761 1261 l 778 966 l 494 911 l 444 311 m 672 1417 l 595 1295 l 155 1378 l 311 1617 l 672 1417 z "},"Í":{"ha":764,"x_min":-78,"x_max":789,"o":"m 444 311 l 789 306 l 783 11 l -33 11 l 0 272 l 189 278 l 216 867 l -78 817 l -61 1139 l 761 1261 l 778 966 l 494 911 l 444 311 m 161 1434 l 522 1633 l 677 1394 l 239 1311 l 161 1434 z "},"Î":{"ha":764,"x_min":-78,"x_max":828,"o":"m 444 311 l 789 306 l 783 11 l -33 11 l 0 272 l 189 278 l 216 867 l -78 817 l -61 1139 l 761 1261 l 778 966 l 494 911 l 444 311 m 422 1611 l 811 1478 l 828 1289 l 422 1422 l 39 1305 l 66 1495 l 422 1611 z "},"Ï":{"ha":764,"x_min":-78,"x_max":806,"o":"m 444 311 l 789 306 l 783 11 l -33 11 l 0 272 l 189 278 l 216 867 l -78 817 l -61 1139 l 761 1261 l 778 966 l 494 911 l 444 311 m 66 1478 q 87 1586 66 1521 q 178 1650 108 1650 q 304 1607 254 1647 q 355 1508 355 1568 q 350 1472 355 1489 q 291 1358 330 1399 q 195 1317 251 1317 q 133 1340 162 1320 q 85 1396 104 1360 q 66 1478 66 1432 m 517 1495 q 537 1603 517 1538 q 628 1667 558 1667 q 716 1646 675 1665 q 782 1596 758 1627 q 806 1525 806 1565 q 800 1489 806 1506 q 741 1374 781 1415 q 644 1333 701 1333 q 555 1381 594 1337 q 517 1495 517 1426 z "},"Æ":{"ha":1250,"x_min":-306,"x_max":1544,"o":"m 428 783 l 334 545 l 494 522 l 428 783 m 528 350 l 322 383 l 45 -205 l -306 -222 l 433 1250 l 1239 1339 l 1255 1044 l 728 956 l 750 739 l 1261 833 l 1278 589 l 789 489 l 833 167 l 1544 134 l 1539 -161 l 589 -83 l 528 350 z "},"Ñ":{"ha":764,"x_min":-122,"x_max":861,"o":"m 289 1278 l 467 828 l 428 1239 l 850 1222 l 861 -300 l 611 -317 l 355 406 l 361 -189 l 39 -195 l 0 1105 l -117 1133 l -122 1305 l 289 1278 m 22 1422 l 39 1578 q 129 1622 67 1596 q 256 1649 191 1649 q 372 1600 330 1649 q 500 1549 416 1549 q 605 1568 552 1549 q 693 1616 659 1587 q 728 1672 728 1645 l 761 1434 q 625 1395 715 1418 q 467 1372 534 1372 q 389 1394 408 1372 q 201 1458 337 1458 q 22 1422 100 1458 z "},"ñ":{"ha":833,"x_min":-11,"x_max":897,"o":"m 294 783 q 424 822 370 808 q 528 835 478 835 q 644 806 594 835 q 774 688 705 771 q 861 533 844 604 q 897 281 897 389 q 890 161 897 224 q 867 0 882 98 l 583 -17 q 585 81 585 17 q 511 533 585 347 q 456 603 483 603 q 378 505 420 603 q 361 451 368 481 q 352 382 355 420 q 349 293 349 345 q 361 28 349 189 l 28 -11 q 13 108 20 49 q 2 217 6 167 q -1 326 -1 268 q 1 399 -1 351 l -11 794 l 256 828 l 294 783 m -11 1034 l 5 1189 q 95 1233 34 1206 q 222 1260 156 1260 q 339 1211 296 1260 q 467 1160 383 1160 q 572 1179 519 1160 q 660 1227 625 1198 q 694 1283 694 1256 l 728 1044 q 591 1006 682 1029 q 433 983 500 983 q 355 1006 374 983 q 279 1054 330 1038 q 168 1069 229 1069 q -11 1034 69 1069 z "},"ç":{"ha":833,"x_min":-57,"x_max":936,"o":"m 572 37 q 699 -139 699 -54 q 636 -251 699 -203 q 511 -323 574 -298 q 416 -355 448 -347 l 178 -183 q 309 -155 230 -179 q 387 -72 387 -132 q 334 21 387 -32 q 143 89 225 34 q 8 257 60 144 q -56 550 -44 370 q -57 610 -57 570 q -34 802 -57 710 q 43 969 -10 895 q 190 1090 96 1043 q 416 1139 283 1137 q 590 1118 505 1139 q 747 1060 675 1097 q 869 970 818 1023 q 936 856 920 917 l 632 657 q 428 733 602 733 q 347 677 389 733 q 306 550 306 621 q 338 447 309 496 q 439 395 366 398 q 553 424 493 395 q 656 541 612 453 q 712 490 659 535 q 822 399 766 444 q 904 332 878 353 q 572 37 808 100 z "},"Ç":{"ha":833,"x_min":-57,"x_max":936,"o":"m 572 37 q 699 -139 699 -54 q 636 -251 699 -203 q 511 -323 574 -298 q 416 -355 448 -347 l 178 -183 q 309 -155 230 -179 q 387 -72 387 -132 q 334 21 387 -32 q 143 89 225 34 q 8 257 60 144 q -56 550 -44 370 q -57 610 -57 570 q -34 802 -57 710 q 43 969 -10 895 q 190 1090 96 1043 q 416 1139 283 1137 q 590 1118 505 1139 q 747 1060 675 1097 q 869 970 818 1023 q 936 856 920 917 l 632 657 q 428 733 602 733 q 347 677 389 733 q 306 550 306 621 q 338 447 309 496 q 439 395 366 398 q 553 424 493 395 q 656 541 612 453 q 712 490 659 535 q 822 399 766 444 q 904 332 878 353 q 572 37 808 100 z "},"¸":{"ha":833,"x_min":178,"x_max":699,"o":"m 572 37 q 699 -139 699 -54 q 636 -251 699 -203 q 511 -323 574 -298 q 416 -355 448 -347 l 178 -183 q 309 -155 230 -179 q 387 -72 387 -132 q 334 21 387 -32 l 250 100 q 320 103 277 101 q 426 110 363 106 q 489 117 489 115 l 572 37 z "},"Ÿ":{"ha":972,"x_min":-106,"x_max":1072,"o":"m 39 1050 l -100 1061 l -106 1234 l 306 1206 l 583 689 l 745 1156 l 1072 1139 l 555 -205 l 228 -233 l 428 339 l 39 1050 m 66 1478 q 87 1586 66 1521 q 178 1650 108 1650 q 304 1607 254 1647 q 355 1508 355 1568 q 350 1472 355 1489 q 291 1358 330 1399 q 195 1317 251 1317 q 133 1340 162 1320 q 85 1396 104 1360 q 66 1478 66 1432 m 517 1495 q 537 1603 517 1538 q 628 1667 558 1667 q 716 1646 675 1665 q 782 1596 758 1627 q 806 1525 806 1565 q 800 1489 806 1506 q 741 1374 781 1415 q 644 1333 701 1333 q 555 1381 594 1337 q 517 1495 517 1426 z "},"Ý":{"ha":972,"x_min":-106,"x_max":1072,"o":"m 39 1050 l -100 1061 l -106 1234 l 306 1206 l 583 689 l 745 1156 l 1072 1139 l 555 -205 l 228 -233 l 428 339 l 39 1050 m 161 1434 l 522 1633 l 677 1394 l 239 1311 l 161 1434 z "},"‰":{"ha":1458,"x_min":-122,"x_max":1553,"o":"m 1078 1189 l 228 -222 l -122 -233 l 705 1173 l 1078 1189 m 121 1150 q 149 1152 131 1152 q 237 1136 196 1152 q 307 1097 277 1120 q 358 1048 337 1073 q 387 1003 378 1023 q 400 939 400 978 q 378 837 400 891 q 324 744 357 783 q 264 699 292 705 q 182 690 220 690 q 60 715 113 690 q -24 786 7 740 q -62 895 -55 832 q -19 1063 -62 985 q 121 1150 24 1141 m 787 367 q 815 368 798 368 q 903 353 863 368 q 974 313 944 337 q 1024 264 1004 290 q 1054 220 1045 239 q 1067 155 1067 195 q 1045 53 1067 108 q 990 -41 1023 -2 q 930 -85 957 -80 q 848 -93 887 -93 q 726 -68 779 -93 q 643 3 673 -43 q 604 111 612 49 q 648 279 604 201 q 787 367 691 357 m 1274 367 q 1301 368 1283 368 q 1410 343 1359 368 q 1493 283 1460 317 q 1540 220 1526 249 q 1553 155 1553 195 q 1531 53 1553 108 q 1476 -41 1509 -2 q 1417 -85 1443 -80 q 1335 -93 1373 -93 q 1213 -68 1265 -93 q 1129 3 1160 -43 q 1090 111 1098 49 q 1134 279 1090 201 q 1274 367 1177 357 z "},"·":{"ha":278,"x_min":-5,"x_max":290,"o":"m 111 833 q 194 818 159 833 q 252 779 229 802 q 282 739 274 756 q 290 699 290 720 q 276 632 290 665 q 241 573 262 598 q 203 545 220 547 q 150 539 166 539 q 42 574 83 539 q -5 669 2 609 q 23 778 -5 728 q 111 833 51 828 z "},"ß":{"ha":833,"x_min":5,"x_max":886,"o":"m 306 922 l 345 722 q 438 823 382 759 q 494 918 494 886 q 484 933 494 930 q 390 951 417 951 q 306 922 347 951 m 17 850 q 5 933 5 890 q 55 1080 5 1024 q 154 1157 104 1136 q 228 1183 203 1179 q 447 1225 340 1225 q 632 1181 553 1225 q 750 1055 710 1138 q 758 1017 758 1037 q 623 761 758 926 q 644 755 629 760 q 687 733 659 750 q 750 681 715 715 q 817 595 784 647 q 886 387 886 483 q 801 192 886 271 q 599 64 715 112 l 489 338 q 583 461 583 394 q 542 534 583 490 q 478 583 501 578 q 420 536 446 552 q 383 517 394 521 l 533 -94 l 239 -39 l 17 850 z "},"¥":{"ha":972,"x_min":-106,"x_max":1072,"o":"m 39 1050 l -100 1061 l -106 1234 l 306 1206 l 583 689 l 745 1156 l 1072 1139 l 872 619 l 1017 623 l 989 428 l 817 433 l 757 288 l 966 289 l 922 111 l 682 103 l 555 -205 l 228 -233 l 347 110 l 117 106 l 139 289 l 412 296 l 428 339 l 406 416 l 139 439 l 134 628 l 272 623 l 39 1050 z "},"•":{"ha":278,"x_min":-5,"x_max":290,"o":"m 111 833 q 194 818 159 833 q 252 779 229 802 q 282 739 274 756 q 290 699 290 720 q 276 632 290 665 q 241 573 262 598 q 203 545 220 547 q 150 539 166 539 q 42 574 83 539 q -5 669 2 609 q 23 778 -5 728 q 111 833 51 828 z "},"¿":{"ha":764,"x_min":-90,"x_max":833,"o":"m 564 593 q 431 554 500 592 q 304 463 361 516 q 211 359 248 410 q 174 282 174 308 q 183 267 174 269 q 221 262 200 262 q 334 278 258 262 q 422 294 409 293 q 530 327 467 300 q 652 386 593 354 q 717 422 711 417 q 771 283 721 422 q 833 117 821 144 q 691 71 781 100 q 528 23 600 42 q 375 -9 456 4 q 231 -22 295 -22 q 38 17 119 -22 q -83 144 -42 57 q -90 180 -90 158 q -25 340 -90 243 q 138 536 39 437 q 334 707 237 635 q 493 798 432 779 l 564 593 m 389 922 q 278 954 323 922 q 218 1017 233 985 q 210 1057 210 1035 q 224 1124 210 1090 q 259 1183 238 1158 q 297 1211 279 1208 q 350 1217 334 1217 q 457 1182 417 1217 q 505 1086 498 1147 q 494 1014 505 1049 q 456 952 483 978 q 389 922 430 926 z "},"¡":{"ha":278,"x_min":-39,"x_max":367,"o":"m 178 994 q 67 1025 112 994 q 7 1089 23 1056 q -1 1129 -1 1107 q 13 1196 -1 1162 q 48 1255 27 1230 q 86 1283 68 1280 q 139 1289 127 1289 q 247 1255 206 1289 q 294 1158 287 1220 q 267 1050 294 1101 q 178 994 239 1000 m 278 806 l 367 56 l -39 -66 l 45 783 l 278 806 z "},"š":{"ha":764,"x_min":-106,"x_max":867,"o":"m 761 517 q 662 548 741 524 q 523 590 584 572 q 387 624 461 608 q 272 640 313 640 q 239 633 250 640 q 205 587 205 608 q 272 530 205 554 q 433 494 338 506 q 644 433 564 480 q 760 325 724 387 q 796 197 796 262 q 778 111 796 151 q 476 -56 699 -56 q 338 -42 415 -56 q 192 -10 262 -29 q 42 35 121 9 q -106 83 -37 61 q -61 172 -88 120 q -8 273 -34 224 q 17 328 17 323 q 66 298 37 309 q 152 272 96 287 q 239 244 209 256 q 375 220 304 220 q 458 229 418 220 q 500 244 497 238 q 440 279 500 262 q 306 306 380 296 q 137 347 222 315 q -8 439 52 378 q -68 590 -68 500 q -33 733 -68 659 q 81 854 5 817 q 262 892 157 892 q 514 857 385 892 q 867 750 644 823 q 829 664 862 740 q 781 552 797 587 q 761 517 764 517 m 367 1194 l 733 1322 l 755 1128 l 378 983 l -11 1122 l 33 1328 l 367 1194 z "},"Š":{"ha":764,"x_min":-134,"x_max":889,"o":"m -28 1050 q 289 1211 48 1211 q 556 1176 416 1211 q 889 1078 696 1140 q 825 908 874 1044 q 772 772 777 772 q 710 808 767 778 q 587 867 654 838 q 478 900 520 895 q 390 921 459 902 q 286 940 320 940 q 239 928 255 940 q 211 882 211 908 q 234 828 211 857 q 294 771 257 800 q 377 715 332 743 q 467 667 422 688 q 624 565 557 622 q 728 450 691 507 q 783 335 766 393 q 800 224 800 276 q 778 111 800 162 q 656 -16 736 24 q 465 -56 576 -56 q 322 -42 401 -56 q 168 -9 242 -29 q 11 37 94 11 q -134 83 -71 63 q -101 166 -123 104 q -62 274 -78 229 q -33 354 -46 319 q -17 389 -20 389 q 111 320 2 373 q 278 261 219 268 q 352 245 300 259 q 424 226 404 231 q 469 221 443 221 q 517 233 500 221 q 547 281 547 256 q 406 411 547 336 q 213 538 319 456 q 27 727 106 620 q -53 942 -53 835 q -28 1050 -53 997 m 378 1439 l 745 1567 l 766 1372 l 389 1227 l 0 1367 l 45 1572 l 378 1439 z "},"—":{"ha":625,"x_min":-5,"x_max":661,"o":"m 11 722 l 661 783 l 639 561 l -5 539 l 11 722 z "},"–":{"ha":903,"x_min":-5,"x_max":911,"o":"m 11 722 l 911 789 l 889 567 l -5 539 l 11 722 z "},"ƒ":{"ha":764,"x_min":-385,"x_max":875,"o":"m 85 -14 q 69 500 71 94 l -90 500 l -129 811 l 81 789 q 77 863 77 840 q 140 1076 77 975 q 380 1227 203 1176 q 576 1257 475 1257 q 736 1227 675 1257 q 828 1167 798 1200 q 875 1061 858 1134 l 636 905 q 589 982 619 949 q 528 1015 559 1015 q 453 945 483 1015 q 446 912 449 937 q 438 843 442 887 q 431 772 433 799 l 610 772 l 610 511 l 414 505 q 412 342 412 454 q 414 173 412 276 q 419 -15 416 70 q 425 -139 422 -100 q 418 -254 425 -181 q 391 -405 410 -328 q 339 -522 371 -483 q 203 -618 294 -578 q 3 -659 113 -659 q -178 -628 -82 -659 q -338 -519 -291 -591 q -385 -358 -385 -447 q -363 -222 -385 -284 q -328 -134 -342 -160 l -106 -278 q -109 -301 -109 -294 q -78 -366 -109 -342 q -8 -390 -48 -390 q 55 -370 28 -390 q 89 -311 82 -350 q 97 -195 97 -266 q 85 -14 97 -111 z "},"£":{"ha":764,"x_min":-129,"x_max":1067,"o":"m 400 72 l 1067 56 l 1061 -239 l 72 -189 q 68 7 68 -158 q 69 199 68 111 q 69 435 69 288 l 69 500 l -90 500 l -129 811 l 81 789 q 77 863 77 840 q 140 1076 77 975 q 380 1227 203 1176 q 576 1257 475 1257 q 736 1227 675 1257 q 828 1167 798 1200 q 875 1061 858 1134 l 636 905 q 589 982 619 949 q 528 1015 559 1015 q 453 945 483 1015 q 446 912 449 937 q 438 843 442 887 q 431 772 433 799 l 610 772 l 610 511 l 414 505 q 411 401 413 454 q 404 288 408 348 q 399 202 400 228 q 397 142 397 176 q 400 72 397 119 z "},"÷":{"ha":625,"x_min":-5,"x_max":661,"o":"m 11 722 l 661 783 l 639 561 l -5 539 l 11 722 m 294 489 q 377 473 342 489 q 435 435 413 457 q 465 395 456 414 q 473 354 473 376 q 459 288 473 322 q 425 228 446 254 q 386 200 404 203 q 334 195 351 195 q 225 230 266 195 q 178 325 185 264 q 206 433 178 383 q 294 489 234 484 m 278 1100 q 361 1084 326 1100 q 418 1045 396 1068 q 449 1006 441 1023 q 457 965 457 987 q 443 898 457 932 q 408 839 429 865 q 370 811 387 814 q 317 806 333 806 q 210 840 250 806 q 161 936 169 875 q 189 1044 161 994 q 278 1100 216 1095 z "},"Œ":{"ha":1528,"x_min":-35,"x_max":1872,"o":"m 811 842 q 756 716 798 766 q 671 667 715 667 q 623 688 643 667 q 605 720 612 699 q 597 762 597 742 q 622 844 597 804 q 701 914 647 884 q 590 884 636 914 q 523 807 545 854 q 501 710 501 760 q 547 595 501 631 q 659 550 603 550 q 774 611 727 550 q 821 762 821 672 q 811 842 821 804 m 842 158 q 620 7 731 54 q 403 -40 508 -40 q 139 39 258 -40 q 49 138 89 72 q -13 293 9 204 q -35 473 -35 381 q -20 617 -35 545 q 26 756 -5 690 q 106 878 58 823 q 222 991 165 945 q 341 1069 279 1038 q 470 1118 404 1101 q 608 1135 536 1135 q 673 1132 652 1135 l 1567 1278 l 1584 983 l 1117 905 l 1128 694 l 1589 772 l 1605 528 l 1139 439 l 1161 106 l 1872 72 l 1867 -222 l 878 -172 l 842 158 z "},"œ":{"ha":1250,"x_min":-26,"x_max":1311,"o":"m 575 621 q 525 530 564 569 q 450 490 487 490 q 418 500 432 490 q 397 557 397 516 q 418 618 397 588 q 484 667 439 649 q 397 650 439 667 q 326 606 355 633 q 278 546 296 579 q 260 478 260 512 q 318 378 260 415 q 421 343 372 343 q 507 375 469 343 q 564 458 544 408 q 583 558 583 509 q 575 621 583 592 m 982 545 q 914 561 949 561 q 843 547 876 561 q 794 511 810 532 q 753 392 753 457 q 756 356 753 374 q 766 313 759 338 q 774 286 773 288 l 982 545 m 564 71 q 435 -3 503 21 q 300 -28 367 -28 q 190 -10 242 -28 q 102 37 138 8 q 7 173 41 87 q -26 353 -26 258 q 68 616 -26 516 q 412 791 233 791 q 615 734 513 791 q 655 704 640 722 q 686 663 671 687 q 826 728 752 707 q 978 750 899 750 q 1141 724 1063 750 q 1278 644 1219 697 l 905 200 q 999 221 955 200 q 1081 280 1044 241 q 1147 370 1118 318 l 1311 172 q 1218 71 1291 117 q 1043 -2 1145 24 q 843 -28 941 -28 q 677 -3 752 -28 q 564 71 603 21 z "},"­":{"ha":486,"x_min":-5,"x_max":528,"o":"m 11 722 l 528 778 l 505 555 l -5 539 l 11 722 z "},"†":{"ha":555,"x_min":11,"x_max":561,"o":"m 11 900 l 161 911 l 272 1105 l 378 917 l 550 911 l 561 684 l 383 677 l 267 328 l 172 677 l 11 677 l 11 900 z "},"‡":{"ha":555,"x_min":5,"x_max":561,"o":"m 378 545 l 555 539 l 545 311 l 372 306 l 267 117 l 155 311 l 5 322 l 5 545 l 167 545 l 172 677 l 11 677 l 11 900 l 161 911 l 272 1105 l 378 917 l 550 911 l 561 684 l 383 677 l 378 545 z "},"×":{"ha":694,"x_min":-17,"x_max":783,"o":"m -17 844 l 172 1017 q 258 935 195 994 q 354 846 321 876 q 389 817 387 817 l 623 1006 l 783 884 l 555 700 l 778 539 l 517 411 l 361 528 l 150 416 l 11 589 l 183 694 l -17 844 z "},"Ð":{"ha":903,"x_min":-28,"x_max":956,"o":"m 595 928 q 505 947 538 947 q 416 917 459 947 l 429 689 l 550 689 l 555 406 l 444 406 l 450 300 q 603 398 565 349 q 650 478 642 446 q 664 552 656 493 q 671 684 671 611 q 653 846 671 779 q 595 928 636 913 m 861 1050 q 915 918 893 986 q 946 782 936 850 q 956 648 956 714 q 924 422 956 530 q 833 228 892 313 q 691 88 774 142 q 505 22 607 35 l 222 -28 l 175 406 l 45 406 l 28 694 l 144 694 l 127 844 q 94 808 123 844 q 61 772 66 772 q 35 830 46 783 q 3 978 24 878 q -28 1100 -18 1078 q 267 1182 129 1151 q 525 1214 406 1214 q 861 1050 781 1214 z "},"ð":{"ha":694,"x_min":-26,"x_max":755,"o":"m 450 664 q 377 640 413 659 q 315 595 340 621 q 274 539 289 570 q 260 478 260 508 q 318 378 260 416 q 422 343 370 343 q 450 346 433 343 l 450 490 q 418 500 432 490 q 397 562 397 516 q 450 664 397 629 m 170 1350 q 411 1417 288 1417 q 591 1378 505 1417 q 684 1317 654 1350 q 730 1211 713 1284 l 745 532 q 750 452 750 496 q 747 393 750 412 l 755 -22 l 472 -39 l 472 3 q 315 -28 398 -28 q 195 -10 252 -28 q 102 37 138 8 q 7 173 41 87 q -26 353 -26 258 q 68 616 -26 516 q 188 718 123 675 q 321 784 254 762 q 452 807 389 807 q 484 806 472 807 l 492 1055 q 452 1154 477 1121 q 395 1186 426 1186 q 323 1150 359 1186 q 261 1055 287 1114 l 170 1350 z "},"µ":{"ha":833,"x_min":-39,"x_max":897,"o":"m 311 -22 l 289 -406 l -39 -400 l 12 339 q 16 445 15 380 q 17 596 17 509 q 28 844 17 758 l 361 806 q 349 541 349 645 q 352 450 349 488 q 361 381 355 412 q 378 328 368 350 q 456 231 420 231 q 511 300 483 231 q 545 394 530 348 q 568 483 560 441 q 581 575 576 525 q 585 685 585 625 q 583 778 585 745 l 867 761 q 893 592 889 621 q 897 519 897 563 q 861 300 897 446 q 783 144 844 226 q 667 31 723 63 q 548 -13 613 -1 q 408 -25 484 -25 q 311 -22 375 -25 z "},"¦":{"ha":416,"x_min":0,"x_max":400,"o":"m 383 539 l 383 -400 l 0 -461 l 0 511 l 383 539 m 18 672 l 28 1322 l 400 1411 l 393 689 l 18 672 z "},"±":{"ha":625,"x_min":-22,"x_max":661,"o":"m 11 722 l 239 743 l 256 956 l 472 956 l 450 761 l 661 783 l 639 561 l 411 554 l 383 328 l 172 328 l 200 547 l -5 539 l 11 722 m 0 256 l 644 294 l 633 134 l -22 106 l 0 256 z "},"ş":{"ha":764,"x_min":-106,"x_max":867,"o":"m 761 517 q 662 548 741 524 q 523 590 584 572 q 387 624 461 608 q 272 640 313 640 q 239 633 250 640 q 205 587 205 608 q 272 530 205 554 q 433 494 338 506 q 644 433 564 480 q 760 325 724 387 q 796 197 796 262 q 778 111 796 151 q 476 -56 699 -56 q 338 -42 415 -56 q 192 -10 262 -29 q 42 35 121 9 q -106 83 -37 61 q -61 172 -88 120 q -8 273 -34 224 q 17 328 17 323 q 66 298 37 309 q 152 272 96 287 q 239 244 209 256 q 375 220 304 220 q 458 229 418 220 q 500 244 497 238 q 440 279 500 262 q 306 306 380 296 q 137 347 222 315 q -8 439 52 378 q -68 590 -68 500 q -33 733 -68 659 q 81 854 5 817 q 262 892 157 892 q 514 857 385 892 q 867 750 644 823 q 829 664 862 740 q 781 552 797 587 q 761 517 764 517 m 517 37 q 643 -139 643 -54 q 581 -251 643 -203 q 455 -323 519 -298 q 361 -355 392 -347 l 122 -183 q 253 -155 174 -179 q 332 -72 332 -132 q 278 21 332 -32 l 195 100 q 264 103 221 101 q 370 110 307 106 q 433 117 433 115 l 517 37 z "},"ı":{"ha":347,"x_min":-56,"x_max":367,"o":"m 367 -127 l 61 -144 l 45 583 l -56 561 l -22 728 l 322 872 l 367 -127 z "},"Ş":{"ha":764,"x_min":-134,"x_max":889,"o":"m -28 1050 q 289 1211 48 1211 q 556 1176 416 1211 q 889 1078 696 1140 q 825 908 874 1044 q 772 772 777 772 q 710 808 767 778 q 587 867 654 838 q 478 900 520 895 q 390 921 459 902 q 286 940 320 940 q 239 928 255 940 q 211 882 211 908 q 234 828 211 857 q 294 771 257 800 q 377 715 332 743 q 467 667 422 688 q 624 565 557 622 q 728 450 691 507 q 783 335 766 393 q 800 224 800 276 q 778 111 800 162 q 656 -16 736 24 q 465 -56 576 -56 q 322 -42 401 -56 q 168 -9 242 -29 q 11 37 94 11 q -134 83 -71 63 q -101 166 -123 104 q -62 274 -78 229 q -33 354 -46 319 q -17 389 -20 389 q 111 320 2 373 q 278 261 219 268 q 352 245 300 259 q 424 226 404 231 q 469 221 443 221 q 517 233 500 221 q 547 281 547 256 q 406 411 547 336 q 213 538 319 456 q 27 727 106 620 q -53 942 -53 835 q -28 1050 -53 997 m 517 37 q 643 -139 643 -54 q 581 -251 643 -203 q 455 -323 519 -298 q 361 -355 392 -347 l 122 -183 q 253 -155 174 -179 q 332 -72 332 -132 q 278 21 332 -32 l 195 100 q 264 103 221 101 q 370 110 307 106 q 433 117 433 115 l 517 37 z "},"İ":{"ha":764,"x_min":-78,"x_max":789,"o":"m 307 1525 q 390 1509 355 1525 q 448 1471 425 1493 q 478 1431 470 1448 q 486 1391 486 1413 q 472 1323 486 1358 q 437 1265 458 1289 q 399 1236 417 1240 q 346 1231 363 1231 q 268 1246 301 1231 q 215 1292 235 1262 q 191 1362 195 1322 q 219 1470 191 1419 q 307 1525 247 1520 m 444 311 l 789 306 l 783 11 l -33 11 l 0 272 l 189 278 l 216 867 l -78 817 l -61 1139 l 761 1261 l 778 966 l 494 911 l 444 311 z "},"ğ":{"ha":694,"x_min":-26,"x_max":745,"o":"m 88 932 l 66 1079 l 363 989 l 677 1093 l 665 946 l 363 842 l 88 932 m 497 366 l 494 511 q 436 524 451 511 q 421 562 421 537 q 432 620 421 590 q 449 663 442 649 q 356 625 398 654 q 290 557 315 597 q 265 478 265 517 q 323 378 265 415 q 419 355 358 355 q 497 366 459 355 m 745 11 l 745 -65 q 733 -308 745 -195 q 684 -467 721 -421 q 549 -580 630 -533 q 361 -627 468 -627 q 211 -600 292 -627 q 86 -531 132 -574 q 23 -438 41 -489 q 4 -330 4 -387 q 25 -194 4 -256 q 61 -106 47 -132 l 283 -250 q 281 -273 281 -267 q 310 -339 281 -315 q 380 -363 340 -363 q 444 -342 416 -363 q 478 -283 471 -321 q 486 -167 486 -238 q 473 14 486 -79 q 300 -28 389 -28 q 190 -10 241 -28 q 102 37 139 7 q 7 173 41 87 q -26 353 -26 258 q 68 616 -26 516 q 412 790 231 790 q 519 775 470 790 l 728 878 l 745 11 z "},"Ğ":{"ha":833,"x_min":-57,"x_max":936,"o":"m 163 1245 l 141 1392 l 438 1302 l 752 1405 l 740 1259 l 438 1155 l 163 1245 m 511 411 l 461 433 l 539 611 l 922 467 l 833 -283 l 489 -256 q 541 -97 507 -200 q 583 39 574 7 q 406 17 539 17 q 180 65 277 17 q 20 232 83 114 q -56 550 -42 349 q -57 610 -57 570 q -34 802 -57 710 q 43 969 -10 895 q 190 1090 96 1043 q 416 1139 283 1137 q 590 1118 505 1139 q 747 1060 675 1097 q 869 970 818 1023 q 936 856 920 917 l 632 657 q 428 733 602 733 q 347 677 389 733 q 306 550 306 621 q 338 447 309 496 q 439 395 366 398 q 460 398 445 395 q 487 405 475 402 q 511 411 499 408 z "}}}
